<svg id="图层_1" data-name="图层 1" xmlns="http://www.w3.org/2000/svg" viewBox="0 0 511.65 228.19"><defs><style>.cls-1{fill:#e1e1e1;}.cls-1,.cls-2,.cls-4{stroke:#000;stroke-miterlimit:10;stroke-width:1.42px;}.cls-2{fill:#9d93af;}.cls-3{fill:#fff;}.cls-4{fill:none;}</style></defs><title>closure2</title><ellipse class="cls-1" cx="255.83" cy="114.09" rx="255.12" ry="113.39"/><rect class="cls-2" x="270" y="85.75" width="226.77" height="56.69" rx="2.83" ry="2.83"/><path class="cls-3" d="M306.58,192.05v3.47a2.8,2.8,0,0,1,2.29-1.23,2.66,2.66,0,0,1,2,.83,3,3,0,0,1,0,4.11,2.65,2.65,0,0,1-1.95.85,2.74,2.74,0,0,1-2.29-1.24v1h-1.23a.37.37,0,0,1-.26-.07.25.25,0,0,1-.09-.19.23.23,0,0,1,.09-.19.37.37,0,0,1,.26-.07h.71v-6.77h-.71a.37.37,0,0,1-.26-.07.25.25,0,0,1-.09-.19.23.23,0,0,1,.09-.19.37.37,0,0,1,.26-.08Zm4.54,5.14a2.28,2.28,0,0,0-.68-1.68,2.17,2.17,0,0,0-3.17,0,2.28,2.28,0,0,0-.68,1.68,2.24,2.24,0,0,0,.68,1.67,2.17,2.17,0,0,0,3.17,0A2.24,2.24,0,0,0,311.12,197.19Z" transform="translate(-27.64 -98.5)"/><path class="cls-3" d="M319,197.3h-5.33a2.48,2.48,0,0,0,.85,1.63,2.54,2.54,0,0,0,1.76.62,4.24,4.24,0,0,0,1.23-.19,3.21,3.21,0,0,0,1.05-.51.32.32,0,0,1,.2-.09.24.24,0,0,1,.18.07.28.28,0,0,1,.07.19.26.26,0,0,1-.1.2,2.87,2.87,0,0,1-1.06.59,4.67,4.67,0,0,1-1.57.27,3.08,3.08,0,0,1-2.24-.89,2.85,2.85,0,0,1-.9-2.13,2.61,2.61,0,0,1,.84-1.95,2.87,2.87,0,0,1,2.09-.82,2.82,2.82,0,0,1,2.11.84A2.92,2.92,0,0,1,319,197.3Zm-.53-.53a2.31,2.31,0,0,0-.82-1.41,2.59,2.59,0,0,0-3.15,0,2.28,2.28,0,0,0-.83,1.42Z" transform="translate(-27.64 -98.5)"/><path class="cls-3" d="M324.14,194.48v4.87h2.05a.43.43,0,0,1,.28.07.26.26,0,0,1,.08.19.27.27,0,0,1-.08.19.43.43,0,0,1-.28.07h-4.63a.41.41,0,0,1-.27-.07.27.27,0,0,1-.08-.19.26.26,0,0,1,.08-.19.41.41,0,0,1,.27-.07h2.06V195h-1.53a.4.4,0,0,1-.27-.08.23.23,0,0,1-.09-.19.25.25,0,0,1,.09-.19.38.38,0,0,1,.27-.07Zm0-2.69v1.35h-.77v-1.35Z" transform="translate(-27.64 -98.5)"/><path class="cls-3" d="M329.83,194.48v.79a3.6,3.6,0,0,1,1-.77,2.25,2.25,0,0,1,1-.21,2.34,2.34,0,0,1,1.09.26,1.69,1.69,0,0,1,.63.62,1.57,1.57,0,0,1,.29.88v3.3h.44a.41.41,0,0,1,.27.07.26.26,0,0,1,.08.19.27.27,0,0,1-.08.19.41.41,0,0,1-.27.07h-1.4a.43.43,0,0,1-.28-.07.27.27,0,0,1-.08-.19.26.26,0,0,1,.08-.19.43.43,0,0,1,.28-.07h.43v-3.21a1.25,1.25,0,0,0-.4-.94,1.53,1.53,0,0,0-1.08-.38,1.81,1.81,0,0,0-.9.21,4.69,4.69,0,0,0-1.08,1v3.29h.59a.41.41,0,0,1,.27.07.26.26,0,0,1,.08.19.27.27,0,0,1-.08.19.41.41,0,0,1-.27.07h-1.71a.41.41,0,0,1-.27-.07.27.27,0,0,1-.08-.19.26.26,0,0,1,.08-.19.41.41,0,0,1,.27-.07h.59V195h-.44a.41.41,0,0,1-.27-.08.27.27,0,0,1,0-.38.41.41,0,0,1,.27-.07Z" transform="translate(-27.64 -98.5)"/><path class="cls-3" d="M340.93,195.44v-1h1.23a.41.41,0,0,1,.27.07.27.27,0,0,1,.08.19.26.26,0,0,1-.08.19.41.41,0,0,1-.27.08h-.71v5.22a2,2,0,0,1-.22.94,2.08,2.08,0,0,1-.5.56,2.45,2.45,0,0,1-.63.42,2,2,0,0,1-.77.12h-1.48a.38.38,0,0,1-.27-.07.24.24,0,0,1-.08-.19.26.26,0,0,1,.08-.19.38.38,0,0,1,.27-.07h1.5a1.57,1.57,0,0,0,.83-.23,1.76,1.76,0,0,0,.61-.7,1.4,1.4,0,0,0,.14-.66v-1.57a2.56,2.56,0,0,1-2.17,1.15,2.52,2.52,0,0,1-1.86-.8,2.77,2.77,0,0,1,0-3.85,2.52,2.52,0,0,1,1.86-.8A2.56,2.56,0,0,1,340.93,195.44Zm0,1.57a2.15,2.15,0,0,0-.63-1.56,2.07,2.07,0,0,0-1.51-.63,2,2,0,0,0-1.51.64,2.23,2.23,0,0,0,0,3.11,2.1,2.1,0,0,0,3,0A2.12,2.12,0,0,0,340.93,197Z" transform="translate(-27.64 -98.5)"/><path class="cls-3" d="M345.56,196.35v3h1.8a.41.41,0,0,1,.27.07.26.26,0,0,1,.08.19.27.27,0,0,1-.08.19.41.41,0,0,1-.27.07h-3a.38.38,0,0,1-.27-.07.27.27,0,0,1-.08-.19.26.26,0,0,1,.08-.19.38.38,0,0,1,.27-.07h.7v-6.24h-.7a.38.38,0,0,1-.27-.08.24.24,0,0,1-.08-.19.25.25,0,0,1,.09-.19.35.35,0,0,1,.26-.07h5.76v1.8a.38.38,0,0,1-.08.27.22.22,0,0,1-.18.08.24.24,0,0,1-.2-.08.38.38,0,0,1-.07-.27v-1.27h-4v2.72h1.88v-.59a.38.38,0,0,1,.07-.27.28.28,0,0,1,.2-.08.25.25,0,0,1,.18.08.38.38,0,0,1,.08.27v1.7a.38.38,0,0,1-.08.27.22.22,0,0,1-.18.08.24.24,0,0,1-.2-.08.38.38,0,0,1-.07-.27v-.59Z" transform="translate(-27.64 -98.5)"/><path class="cls-3" d="M356.27,199.87v-.77a3.37,3.37,0,0,1-2.31,1,1.54,1.54,0,0,1-1.17-.42,1.83,1.83,0,0,1-.52-1.28V195h-.7a.4.4,0,0,1-.27-.08.27.27,0,0,1,0-.38.4.4,0,0,1,.27-.07h1.23v3.9a1.13,1.13,0,0,0,.32.84,1.1,1.1,0,0,0,.81.33,3.13,3.13,0,0,0,2.34-1.17V195h-1a.38.38,0,0,1-.27-.08.27.27,0,0,1,0-.38.38.38,0,0,1,.27-.07h1.48v4.87h.45a.37.37,0,0,1,.26.07.23.23,0,0,1,.09.19.25.25,0,0,1-.09.19.37.37,0,0,1-.26.07Z" transform="translate(-27.64 -98.5)"/><path class="cls-3" d="M360.44,194.48v.79a3.93,3.93,0,0,1,1-.77,2.45,2.45,0,0,1,2.09.05,1.76,1.76,0,0,1,.63.62,1.57,1.57,0,0,1,.29.88v3.3h.44a.41.41,0,0,1,.27.07.26.26,0,0,1,.08.19.27.27,0,0,1-.08.19.41.41,0,0,1-.27.07h-1.4a.43.43,0,0,1-.28-.07.27.27,0,0,1-.08-.19.26.26,0,0,1,.08-.19.43.43,0,0,1,.28-.07h.43v-3.21a1.25,1.25,0,0,0-.4-.94,1.53,1.53,0,0,0-1.08-.38,1.81,1.81,0,0,0-.9.21,4.88,4.88,0,0,0-1.09,1v3.29h.6a.37.37,0,0,1,.26.07.22.22,0,0,1,.08.19.24.24,0,0,1-.08.19.37.37,0,0,1-.26.07h-1.71a.41.41,0,0,1-.27-.07.27.27,0,0,1-.08-.19.26.26,0,0,1,.08-.19.41.41,0,0,1,.27-.07h.59V195h-.44a.4.4,0,0,1-.27-.08.27.27,0,0,1,0-.38.4.4,0,0,1,.27-.07Z" transform="translate(-27.64 -98.5)"/><path class="cls-3" d="M368.1,194.48v.79a3.6,3.6,0,0,1,1-.77,2.29,2.29,0,0,1,1-.21,2.34,2.34,0,0,1,1.09.26,1.76,1.76,0,0,1,.63.62,1.55,1.55,0,0,1,.28.88v3.3h.44a.38.38,0,0,1,.27.07.22.22,0,0,1,.08.19.24.24,0,0,1-.08.19.38.38,0,0,1-.27.07h-1.4a.38.38,0,0,1-.27-.07.24.24,0,0,1-.08-.19.22.22,0,0,1,.08-.19.38.38,0,0,1,.27-.07h.44v-3.21a1.26,1.26,0,0,0-.41-.94,1.53,1.53,0,0,0-1.08-.38,1.87,1.87,0,0,0-.9.21,4.9,4.9,0,0,0-1.08,1v3.29h.59a.38.38,0,0,1,.27.07.26.26,0,0,1,.08.19.27.27,0,0,1-.08.19.38.38,0,0,1-.27.07H367a.37.37,0,0,1-.26-.07.24.24,0,0,1-.08-.19.22.22,0,0,1,.08-.19.37.37,0,0,1,.26-.07h.6V195h-.45a.37.37,0,0,1-.26-.08.27.27,0,0,1,0-.38.37.37,0,0,1,.26-.07Z" transform="translate(-27.64 -98.5)"/><path class="cls-3" d="M377.48,199.87,375.05,195h-.16a.37.37,0,0,1-.26-.08.22.22,0,0,1-.08-.19.23.23,0,0,1,0-.14.19.19,0,0,1,.1-.1l.2,0h1.44a.37.37,0,0,1,.26.07.25.25,0,0,1,.09.19.23.23,0,0,1-.09.19.37.37,0,0,1-.26.08h-.71l2.14,4.29,2.11-4.29h-.71a.41.41,0,0,1-.27-.08.27.27,0,0,1,0-.38.41.41,0,0,1,.27-.07h1.43a.38.38,0,0,1,.27.07.24.24,0,0,1,.08.19.2.2,0,0,1-.05.15.19.19,0,0,1-.11.09,1.14,1.14,0,0,1-.35,0l-3.31,6.74h.81a.44.44,0,0,1,.27.07.27.27,0,0,1,0,.38.38.38,0,0,1-.27.07h-3a.4.4,0,0,1-.27-.07.24.24,0,0,1-.08-.19.26.26,0,0,1,.08-.19.46.46,0,0,1,.27-.07h1.64Z" transform="translate(-27.64 -98.5)"/><path class="cls-3" d="M395.61,195.54h-5.7a.38.38,0,0,1-.27-.07.24.24,0,0,1-.08-.2.22.22,0,0,1,.08-.18.38.38,0,0,1,.27-.08h5.7a.4.4,0,0,1,.27.08.26.26,0,0,1,.08.19.27.27,0,0,1-.08.19A.4.4,0,0,1,395.61,195.54Zm0,1.88h-5.7a.38.38,0,0,1-.27-.08.21.21,0,0,1-.08-.19.24.24,0,0,1,.08-.19.44.44,0,0,1,.27-.07h5.7a.46.46,0,0,1,.27.07.27.27,0,0,1,.08.19.24.24,0,0,1-.08.19A.4.4,0,0,1,395.61,197.42Z" transform="translate(-27.64 -98.5)"/><path class="cls-3" d="M407,194.48h2.84a.4.4,0,0,1,.27.07.27.27,0,0,1,.08.19.26.26,0,0,1-.08.19.4.4,0,0,1-.27.08H407v3.48a1,1,0,0,0,.36.76,1.66,1.66,0,0,0,1.07.3,4.41,4.41,0,0,0,1.15-.16,3.84,3.84,0,0,0,1-.35.35.35,0,0,1,.2-.08.24.24,0,0,1,.18.07.26.26,0,0,1,.07.19.21.21,0,0,1-.08.17,2.47,2.47,0,0,1-1,.45,4.91,4.91,0,0,1-1.47.24,2.33,2.33,0,0,1-1.46-.43,1.42,1.42,0,0,1-.54-1.16V195h-1a.38.38,0,0,1-.27-.08.27.27,0,0,1,0-.38.38.38,0,0,1,.27-.07h1v-1.55a.41.41,0,0,1,.08-.27.23.23,0,0,1,.18-.08.28.28,0,0,1,.2.08.48.48,0,0,1,.07.27Z" transform="translate(-27.64 -98.5)"/><path class="cls-3" d="M415.09,194.48v1.32a8.67,8.67,0,0,1,1.53-1.19,2,2,0,0,1,.94-.26,1.38,1.38,0,0,1,.87.31c.27.21.4.37.4.48a.26.26,0,0,1-.08.19.24.24,0,0,1-.19.08l-.11,0a1.14,1.14,0,0,1-.16-.14,1.43,1.43,0,0,0-.38-.3.79.79,0,0,0-.32-.08,1.74,1.74,0,0,0-.82.27,12.8,12.8,0,0,0-1.68,1.34v2.87h2.32a.38.38,0,0,1,.27.07.23.23,0,0,1,.09.19.25.25,0,0,1-.09.19.38.38,0,0,1-.27.07h-4.1a.38.38,0,0,1-.27-.07.22.22,0,0,1-.08-.18.21.21,0,0,1,.08-.18.38.38,0,0,1,.27-.07h1.26V195h-1a.37.37,0,0,1-.26-.08.22.22,0,0,1-.08-.19.25.25,0,0,1,.07-.19.41.41,0,0,1,.27-.07Z" transform="translate(-27.64 -98.5)"/><path class="cls-3" d="M425.17,199.87v-.77a3.41,3.41,0,0,1-2.32,1,1.55,1.55,0,0,1-1.17-.42,1.82,1.82,0,0,1-.51-1.28V195h-.71a.41.41,0,0,1-.27-.08.27.27,0,0,1,0-.38.41.41,0,0,1,.27-.07h1.23v3.9a1.17,1.17,0,0,0,.32.84,1.1,1.1,0,0,0,.81.33,3.15,3.15,0,0,0,2.35-1.17V195h-1a.41.41,0,0,1-.27-.08.27.27,0,0,1,0-.38.41.41,0,0,1,.27-.07h1.49v4.87h.44a.41.41,0,0,1,.27.07.26.26,0,0,1,.08.19.27.27,0,0,1-.08.19.41.41,0,0,1-.27.07Z" transform="translate(-27.64 -98.5)"/><path class="cls-3" d="M433.86,197.3h-5.33a2.48,2.48,0,0,0,.85,1.63,2.54,2.54,0,0,0,1.76.62,4.24,4.24,0,0,0,1.23-.19,3.21,3.21,0,0,0,1.05-.51.35.35,0,0,1,.2-.09.24.24,0,0,1,.18.07.28.28,0,0,1,.07.19.26.26,0,0,1-.1.2,2.87,2.87,0,0,1-1.06.59,4.67,4.67,0,0,1-1.57.27,3.08,3.08,0,0,1-2.24-.89,2.85,2.85,0,0,1-.9-2.13,2.61,2.61,0,0,1,.84-1.95,2.88,2.88,0,0,1,2.09-.82,2.82,2.82,0,0,1,2.11.84A2.88,2.88,0,0,1,433.86,197.3Zm-.53-.53a2.27,2.27,0,0,0-.82-1.41,2.59,2.59,0,0,0-3.15,0,2.32,2.32,0,0,0-.83,1.42Z" transform="translate(-27.64 -98.5)"/><path class="cls-3" d="M437.66,198h1.64l-1.76,2.89a1.25,1.25,0,0,1-.21.27.35.35,0,0,1-.18,0,.37.37,0,0,1-.25-.09.28.28,0,0,1-.1-.22.58.58,0,0,1,0-.2Zm.91-3.51h.23a.85.85,0,0,1,.84.84.81.81,0,0,1-.25.61.82.82,0,0,1-.59.24h-.23a.82.82,0,0,1-.6-.25.81.81,0,0,1-.24-.59.79.79,0,0,1,.25-.61A.82.82,0,0,1,438.57,194.48Z" transform="translate(-27.64 -98.5)"/><path class="cls-3" d="M306.86,211.48v.8a3.93,3.93,0,0,1,1-.77,2.49,2.49,0,0,1,2.09,0,1.85,1.85,0,0,1,.63.62,1.61,1.61,0,0,1,.28.89v3.3h.45a.37.37,0,0,1,.26.07.22.22,0,0,1,.08.19.22.22,0,0,1-.08.18.37.37,0,0,1-.26.08h-1.41a.4.4,0,0,1-.27-.08.25.25,0,0,1-.08-.18.26.26,0,0,1,.08-.19.4.4,0,0,1,.27-.07h.44v-3.21a1.25,1.25,0,0,0-.4-.94,1.51,1.51,0,0,0-1.09-.38,1.8,1.8,0,0,0-.89.21,4.68,4.68,0,0,0-1.09,1v3.29h.59a.38.38,0,0,1,.27.07.26.26,0,0,1,.08.19.25.25,0,0,1-.08.18.38.38,0,0,1-.27.08h-1.7a.38.38,0,0,1-.27-.08.22.22,0,0,1-.08-.18.22.22,0,0,1,.08-.19.38.38,0,0,1,.27-.07h.59V212h-.44a.38.38,0,0,1-.27-.07.24.24,0,0,1-.08-.19.22.22,0,0,1,.08-.19.38.38,0,0,1,.27-.08Z" transform="translate(-27.64 -98.5)"/><path class="cls-3" d="M319.13,214.19a2.76,2.76,0,0,1-.86,2.05,2.95,2.95,0,0,1-4.13,0,2.85,2.85,0,0,1,0-4.08,2.93,2.93,0,0,1,4.13,0A2.72,2.72,0,0,1,319.13,214.19Zm-.53,0a2.25,2.25,0,0,0-.7-1.67,2.43,2.43,0,0,0-3.39,0,2.34,2.34,0,0,0,0,3.34,2.28,2.28,0,0,0,1.69.7,2.33,2.33,0,0,0,1.7-.69A2.27,2.27,0,0,0,318.6,214.19Z" transform="translate(-27.64 -98.5)"/><path class="cls-3" d="M322.79,211.48h2.84a.41.41,0,0,1,.27.08.27.27,0,0,1,0,.38.41.41,0,0,1-.27.07h-2.84v3.49a1,1,0,0,0,.36.76,1.64,1.64,0,0,0,1.07.3,4.47,4.47,0,0,0,1.15-.16,3.46,3.46,0,0,0,1-.36.43.43,0,0,1,.2-.08.25.25,0,0,1,.18.08.29.29,0,0,1,.07.18.25.25,0,0,1-.08.18,2.59,2.59,0,0,1-1,.44,4.91,4.91,0,0,1-1.47.24,2.27,2.27,0,0,1-1.46-.43,1.39,1.39,0,0,1-.54-1.15V212h-1a.41.41,0,0,1-.27-.07.27.27,0,0,1-.08-.19.26.26,0,0,1,.08-.19.41.41,0,0,1,.27-.08h1v-1.54a.41.41,0,0,1,.07-.27.27.27,0,0,1,.19-.08.26.26,0,0,1,.19.08.41.41,0,0,1,.08.27Z" transform="translate(-27.64 -98.5)"/><path class="cls-3" d="M333.39,210.11v-.17a.41.41,0,0,1,.07-.27.27.27,0,0,1,.38,0,.41.41,0,0,1,.07.27v1.33a.38.38,0,0,1-.07.27.26.26,0,0,1-.19.08.23.23,0,0,1-.18-.07.34.34,0,0,1-.08-.25,1.33,1.33,0,0,0-.54-.94,2.07,2.07,0,0,0-1.33-.41,2,2,0,0,0-1.38.44,1.36,1.36,0,0,0-.51,1.05,1.1,1.1,0,0,0,.15.57,1.07,1.07,0,0,0,.38.41,2,2,0,0,0,.53.26,7.84,7.84,0,0,0,.94.2,7.15,7.15,0,0,1,1.47.35,1.92,1.92,0,0,1,.82.68,1.84,1.84,0,0,1,.27,1,2,2,0,0,1-.71,1.53,2.85,2.85,0,0,1-1.94.63,2.89,2.89,0,0,1-2.18-.85v.3a.41.41,0,0,1-.07.27.24.24,0,0,1-.19.08.25.25,0,0,1-.18-.08.41.41,0,0,1-.08-.27v-1.45a.48.48,0,0,1,.07-.27.26.26,0,0,1,.19-.08.25.25,0,0,1,.19.07.41.41,0,0,1,.07.25,1.47,1.47,0,0,0,.62,1,2.44,2.44,0,0,0,1.56.47,2.3,2.3,0,0,0,1.56-.49,1.5,1.5,0,0,0,.57-1.17,1.26,1.26,0,0,0-.22-.73,1.55,1.55,0,0,0-.65-.51,7.39,7.39,0,0,0-1.24-.29,4.31,4.31,0,0,1-1.88-.66,1.54,1.54,0,0,1-.57-1.28,1.85,1.85,0,0,1,.66-1.42,2.49,2.49,0,0,1,1.73-.59A2.79,2.79,0,0,1,333.39,210.11Z" transform="translate(-27.64 -98.5)"/><path class="cls-3" d="M342.1,214.19a2.8,2.8,0,0,1-.86,2.05,2.85,2.85,0,0,1-2.07.84,2.81,2.81,0,0,1-2.07-.85,2.87,2.87,0,0,1,0-4.08,2.95,2.95,0,0,1,4.14,0A2.76,2.76,0,0,1,342.1,214.19Zm-.53,0a2.29,2.29,0,0,0-.7-1.67,2.44,2.44,0,0,0-3.4,0,2.34,2.34,0,0,0,0,3.34,2.3,2.3,0,0,0,1.7.7,2.35,2.35,0,0,0,1.7-.69A2.31,2.31,0,0,0,341.57,214.19Z" transform="translate(-27.64 -98.5)"/><path class="cls-3" d="M347.17,214.69h-.6l-2-4.58h-.1v6.25h1a.41.41,0,0,1,.27.07.26.26,0,0,1,.08.19.25.25,0,0,1-.08.18.41.41,0,0,1-.27.08H343.5a.38.38,0,0,1-.27-.08.22.22,0,0,1-.08-.18.22.22,0,0,1,.08-.19.38.38,0,0,1,.27-.07h.44v-6.25h-.33a.4.4,0,0,1-.27-.07.24.24,0,0,1-.08-.19.26.26,0,0,1,.08-.19.46.46,0,0,1,.27-.07h1.28l2,4.51,1.95-4.51h1.29a.46.46,0,0,1,.27.07.26.26,0,0,1,.08.19.24.24,0,0,1-.08.19.4.4,0,0,1-.27.07h-.33v6.25h.44a.38.38,0,0,1,.27.07.22.22,0,0,1,.08.19.22.22,0,0,1-.08.18.38.38,0,0,1-.27.08h-1.93a.41.41,0,0,1-.27-.08.25.25,0,0,1-.08-.18.22.22,0,0,1,.08-.19.38.38,0,0,1,.27-.07h1v-6.25h-.11Z" transform="translate(-27.64 -98.5)"/><path class="cls-3" d="M356.27,216.88v-.77a3.36,3.36,0,0,1-2.31,1,1.53,1.53,0,0,1-1.17-.41,1.83,1.83,0,0,1-.52-1.28V212h-.7a.4.4,0,0,1-.27-.07.27.27,0,0,1-.08-.19.26.26,0,0,1,.08-.19.4.4,0,0,1,.27-.08h1.23v3.91a1.13,1.13,0,0,0,.32.84,1.1,1.1,0,0,0,.81.33,3.13,3.13,0,0,0,2.34-1.17V212h-1a.38.38,0,0,1-.27-.07.24.24,0,0,1-.08-.19.22.22,0,0,1,.08-.19.38.38,0,0,1,.27-.08h1.48v4.88h.45a.37.37,0,0,1,.26.07.23.23,0,0,1,.09.19.23.23,0,0,1-.09.18.37.37,0,0,1-.26.08Z" transform="translate(-27.64 -98.5)"/><path class="cls-3" d="M364.32,212v-.17a.38.38,0,0,1,.07-.27.25.25,0,0,1,.19-.09.23.23,0,0,1,.19.09.38.38,0,0,1,.08.27V213a.49.49,0,0,1-.08.28.26.26,0,0,1-.19.08.29.29,0,0,1-.18-.07.45.45,0,0,1-.08-.24,1.22,1.22,0,0,0-.58-.84,2.44,2.44,0,0,0-1.47-.4,2.15,2.15,0,0,0-1.77.73,2.54,2.54,0,0,0-.6,1.67,2.27,2.27,0,0,0,.66,1.67,2.36,2.36,0,0,0,1.73.66,3.65,3.65,0,0,0,1.24-.22,3,3,0,0,0,1.14-.73.39.39,0,0,1,.23-.12.24.24,0,0,1,.25.25c0,.18-.21.4-.63.68a4,4,0,0,1-2.26.66,2.8,2.8,0,0,1-2.07-.8,2.74,2.74,0,0,1-.82-2.05,2.85,2.85,0,0,1,2.93-2.93A3,3,0,0,1,364.32,212Z" transform="translate(-27.64 -98.5)"/><path class="cls-3" d="M368.07,209.06v3.22a3.39,3.39,0,0,1,.95-.76,2.32,2.32,0,0,1,1-.22,2.35,2.35,0,0,1,1,.21,1.94,1.94,0,0,1,.71.66,1.73,1.73,0,0,1,.29.94v3.25h.58a.38.38,0,0,1,.27.07.26.26,0,0,1,.08.19.25.25,0,0,1-.08.18.38.38,0,0,1-.27.08H371a.38.38,0,0,1-.27-.08.22.22,0,0,1-.08-.18.22.22,0,0,1,.08-.19.38.38,0,0,1,.27-.07h.59v-3.21a1.25,1.25,0,0,0-.41-1,1.62,1.62,0,0,0-1.14-.38,1.66,1.66,0,0,0-1,.28,7.53,7.53,0,0,0-1,.94v3.32h.59a.41.41,0,0,1,.27.07.26.26,0,0,1,.08.19.25.25,0,0,1-.08.18.41.41,0,0,1-.27.08H367a.37.37,0,0,1-.26-.08.23.23,0,0,1-.09-.18.23.23,0,0,1,.09-.19.37.37,0,0,1,.26-.07h.59v-6.77h-.7a.41.41,0,0,1-.27-.07.28.28,0,0,1-.08-.2.25.25,0,0,1,.08-.18.41.41,0,0,1,.27-.08Z" transform="translate(-27.64 -98.5)"/><path class="cls-3" d="M388,212.55h-5.71a.48.48,0,0,1-.27-.07.28.28,0,0,1-.08-.2.25.25,0,0,1,.08-.18.41.41,0,0,1,.27-.08H388a.37.37,0,0,1,.26.08.22.22,0,0,1,.08.19.24.24,0,0,1-.08.19A.43.43,0,0,1,388,212.55Zm0,1.87h-5.71a.41.41,0,0,1-.27-.07.24.24,0,0,1-.08-.19A.26.26,0,0,1,382,214a.48.48,0,0,1,.27-.07H388a.43.43,0,0,1,.26.07.22.22,0,0,1,.08.19.21.21,0,0,1-.08.19A.37.37,0,0,1,388,214.42Z" transform="translate(-27.64 -98.5)"/><path class="cls-3" d="M400.06,212v4.35h2.3a.38.38,0,0,1,.27.07.26.26,0,0,1,.08.19.25.25,0,0,1-.08.18.38.38,0,0,1-.27.08h-4.09a.41.41,0,0,1-.27-.08.25.25,0,0,1-.08-.18.26.26,0,0,1,.08-.19.41.41,0,0,1,.27-.07h1.26V212H398.4a.41.41,0,0,1-.27-.07.27.27,0,0,1-.08-.19.26.26,0,0,1,.08-.19.41.41,0,0,1,.27-.08h1.13v-.79a1.48,1.48,0,0,1,.54-1.14,2,2,0,0,1,1.42-.49,10,10,0,0,1,1.58.14.79.79,0,0,1,.39.12.24.24,0,0,1,.06.18.24.24,0,0,1-.07.18.27.27,0,0,1-.2.07.62.62,0,0,1-.17,0,11.68,11.68,0,0,0-1.59-.14,1.5,1.5,0,0,0-1.06.34,1,1,0,0,0-.37.76v.79h2.45a.38.38,0,0,1,.27.08.27.27,0,0,1,0,.38.38.38,0,0,1-.27.07Z" transform="translate(-27.64 -98.5)"/><path class="cls-3" d="M409.57,216.88v-.75a3.76,3.76,0,0,1-2.44,1,2.13,2.13,0,0,1-1.47-.47,1.53,1.53,0,0,1-.53-1.17,1.69,1.69,0,0,1,.7-1.33,3.18,3.18,0,0,1,2-.56,7.28,7.28,0,0,1,.78,0,8.76,8.76,0,0,1,.92.15v-.85a.92.92,0,0,0-.4-.74,1.85,1.85,0,0,0-1.2-.32,6.32,6.32,0,0,0-1.71.35l-.25.06a.24.24,0,0,1-.18-.07.29.29,0,0,1-.07-.19.22.22,0,0,1,.07-.17,2.19,2.19,0,0,1,.7-.25,6.47,6.47,0,0,1,1.47-.26,2.23,2.23,0,0,1,1.54.49,1.44,1.44,0,0,1,.56,1.1v3.47h.7a.4.4,0,0,1,.27.07.26.26,0,0,1,.08.19.25.25,0,0,1-.08.18.4.4,0,0,1-.27.08Zm0-2.6a4.9,4.9,0,0,0-.78-.16,7.85,7.85,0,0,0-.87-.05,2.85,2.85,0,0,0-1.78.49,1.09,1.09,0,0,0-.48.88,1,1,0,0,0,.37.8,1.6,1.6,0,0,0,1.08.32,3,3,0,0,0,1.26-.27,4.58,4.58,0,0,0,1.2-.86Z" transform="translate(-27.64 -98.5)"/><path class="cls-3" d="M416,209.06v7.3H418a.38.38,0,0,1,.27.07.22.22,0,0,1,.08.19.22.22,0,0,1-.08.18.38.38,0,0,1-.27.08h-4.63a.38.38,0,0,1-.27-.08.22.22,0,0,1-.08-.18.22.22,0,0,1,.08-.19.38.38,0,0,1,.27-.07h2v-6.77H414a.41.41,0,0,1-.27-.07.28.28,0,0,1-.08-.2.25.25,0,0,1,.08-.18.4.4,0,0,1,.27-.08Z" transform="translate(-27.64 -98.5)"/><path class="cls-3" d="M425.1,211.83a.37.37,0,0,1,.08-.26.23.23,0,0,1,.18-.09.25.25,0,0,1,.2.09.38.38,0,0,1,.07.27v.9a.37.37,0,0,1-.07.26.25.25,0,0,1-.2.09.24.24,0,0,1-.17-.07.35.35,0,0,1-.09-.23.8.8,0,0,0-.38-.61,2.82,2.82,0,0,0-2.72,0,.77.77,0,0,0-.37.6.72.72,0,0,0,.44.62,3.11,3.11,0,0,0,1.13.27,7.88,7.88,0,0,1,1.52.27,2,2,0,0,1,.9.6,1.4,1.4,0,0,1,.29.84,1.49,1.49,0,0,1-.64,1.18,2.91,2.91,0,0,1-1.88.52,3.15,3.15,0,0,1-2-.62.75.75,0,0,1,0,.27.15.15,0,0,1-.09.1.24.24,0,0,1-.14,0,.26.26,0,0,1-.19-.08.41.41,0,0,1-.07-.27v-1.08a.41.41,0,0,1,.07-.27.26.26,0,0,1,.19-.08.27.27,0,0,1,.19.08.29.29,0,0,1,.08.21.76.76,0,0,0,.14.48,1.65,1.65,0,0,0,.69.5,3.12,3.12,0,0,0,1.17.19,2.52,2.52,0,0,0,1.52-.38,1,1,0,0,0,.5-.8.87.87,0,0,0-.51-.78,3.62,3.62,0,0,0-1.48-.39,6,6,0,0,1-1.4-.27,1.36,1.36,0,0,1-.66-.48,1.16,1.16,0,0,1-.24-.7,1.21,1.21,0,0,1,.66-1.07,3.06,3.06,0,0,1,1.58-.39A2.73,2.73,0,0,1,425.1,211.83Z" transform="translate(-27.64 -98.5)"/><path class="cls-3" d="M433.86,214.31h-5.33a2.5,2.5,0,0,0,.85,1.63,2.59,2.59,0,0,0,1.76.62,4.24,4.24,0,0,0,1.23-.19,3.21,3.21,0,0,0,1.05-.51.31.31,0,0,1,.2-.1.25.25,0,0,1,.18.08.26.26,0,0,1,.07.19.26.26,0,0,1-.1.2,2.74,2.74,0,0,1-1.06.58,4.67,4.67,0,0,1-1.57.27,3.07,3.07,0,0,1-2.24-.88,2.86,2.86,0,0,1-.9-2.13,2.65,2.65,0,0,1,.84-2,2.91,2.91,0,0,1,2.09-.81,2.82,2.82,0,0,1,2.11.84A2.86,2.86,0,0,1,433.86,214.31Zm-.53-.53a2.27,2.27,0,0,0-.82-1.41,2.59,2.59,0,0,0-3.15,0,2.32,2.32,0,0,0-.83,1.42Z" transform="translate(-27.64 -98.5)"/><path class="cls-3" d="M437.66,215h1.64l-1.76,2.89a1.25,1.25,0,0,1-.21.27.35.35,0,0,1-.18.05.37.37,0,0,1-.25-.09.29.29,0,0,1-.1-.23.54.54,0,0,1,0-.19Zm.91-3.52h.23a.85.85,0,0,1,0,1.7h-.23a.84.84,0,0,1-.84-.84.79.79,0,0,1,.25-.61A.83.83,0,0,1,438.57,211.48Z" transform="translate(-27.64 -98.5)"/><path class="cls-3" d="M308.83,228.49v4.87h2.05a.43.43,0,0,1,.28.08.24.24,0,0,1,.08.19.25.25,0,0,1-.08.18.43.43,0,0,1-.28.08h-4.63a.41.41,0,0,1-.27-.08.25.25,0,0,1-.08-.18.24.24,0,0,1,.08-.19.41.41,0,0,1,.27-.08h2.06V229h-1.53a.41.41,0,0,1-.27-.07.25.25,0,0,1-.09-.19.23.23,0,0,1,.09-.19.38.38,0,0,1,.27-.08Zm0-2.68v1.35H308v-1.35Z" transform="translate(-27.64 -98.5)"/><path class="cls-3" d="M314.52,228.49v.79a3.54,3.54,0,0,1,1-.76,2.25,2.25,0,0,1,1-.21,2.33,2.33,0,0,1,1.09.25,1.69,1.69,0,0,1,.63.62,1.62,1.62,0,0,1,.29.89v3.29H319a.4.4,0,0,1,.27.08.24.24,0,0,1,.08.19.25.25,0,0,1-.08.18.4.4,0,0,1-.27.08h-1.4a.38.38,0,0,1-.27-.08.23.23,0,0,1-.09-.18.22.22,0,0,1,.09-.19.38.38,0,0,1,.27-.08H318v-3.2a1.24,1.24,0,0,0-.41-.94,1.49,1.49,0,0,0-1.08-.39,1.93,1.93,0,0,0-.9.21,5,5,0,0,0-1.08,1v3.28h.59a.41.41,0,0,1,.27.08.24.24,0,0,1,.08.19.25.25,0,0,1-.08.18.41.41,0,0,1-.27.08H313.4a.41.41,0,0,1-.27-.08.25.25,0,0,1-.08-.18.24.24,0,0,1,.08-.19.41.41,0,0,1,.27-.08H314V229h-.44a.41.41,0,0,1-.27-.07.28.28,0,0,1-.08-.2.25.25,0,0,1,.08-.18.41.41,0,0,1,.27-.08Z" transform="translate(-27.64 -98.5)"/><path class="cls-3" d="M326.16,227.32V227a.38.38,0,0,1,.08-.27.23.23,0,0,1,.18-.08.28.28,0,0,1,.2.08.44.44,0,0,1,.07.27v1.45a.44.44,0,0,1-.07.27.24.24,0,0,1-.2.08.21.21,0,0,1-.17-.07.38.38,0,0,1-.09-.24,1.27,1.27,0,0,0-.56-.93A2.65,2.65,0,0,0,324,227a2.52,2.52,0,0,0-1.14.27,1.85,1.85,0,0,0-.63.48,3.82,3.82,0,0,0-.66,1.07,2.78,2.78,0,0,0-.17,1v.91a2.81,2.81,0,0,0,.85,2,2.68,2.68,0,0,0,2,.86,2.55,2.55,0,0,0,1.21-.29,3.77,3.77,0,0,0,1-.89.3.3,0,0,1,.24-.13.24.24,0,0,1,.18.07.26.26,0,0,1,.07.17.81.81,0,0,1-.27.44,3.47,3.47,0,0,1-1.15.86,3,3,0,0,1-1.29.29,3.22,3.22,0,0,1-1.16-.22,3,3,0,0,1-.74-.39,5.31,5.31,0,0,1-.72-.75,3.5,3.5,0,0,1-.58-1,3.12,3.12,0,0,1-.15-1v-1.07a3.41,3.41,0,0,1,.41-1.58,3.09,3.09,0,0,1,1.13-1.24,3.05,3.05,0,0,1,1.56-.43A3.12,3.12,0,0,1,326.16,227.32Z" transform="translate(-27.64 -98.5)"/><path class="cls-3" d="M334.44,231.2a2.76,2.76,0,0,1-.86,2.05,2.95,2.95,0,0,1-4.13,0,2.89,2.89,0,0,1,2.07-4.93,2.82,2.82,0,0,1,2.06.84A2.76,2.76,0,0,1,334.44,231.2Zm-.53,0a2.25,2.25,0,0,0-.7-1.67,2.4,2.4,0,0,0-3.39,0,2.34,2.34,0,0,0,0,3.34,2.28,2.28,0,0,0,1.69.7,2.33,2.33,0,0,0,1.7-.69A2.29,2.29,0,0,0,333.91,231.2Z" transform="translate(-27.64 -98.5)"/><path class="cls-3" d="M337.48,228.49v.79a3.85,3.85,0,0,1,1-.76,2.49,2.49,0,0,1,2.09,0,1.85,1.85,0,0,1,.63.62,1.61,1.61,0,0,1,.28.89v3.29h.45a.37.37,0,0,1,.26.08.21.21,0,0,1,.08.19.22.22,0,0,1-.08.18.37.37,0,0,1-.26.08h-1.41a.38.38,0,0,1-.27-.08.25.25,0,0,1-.08-.18.24.24,0,0,1,.08-.19.38.38,0,0,1,.27-.08H341v-3.2a1.24,1.24,0,0,0-.41-.94,1.49,1.49,0,0,0-1.08-.39,2,2,0,0,0-.9.21,5,5,0,0,0-1.08,1v3.28h.59a.38.38,0,0,1,.27.08.24.24,0,0,1,.08.19.25.25,0,0,1-.08.18.38.38,0,0,1-.27.08h-1.7a.38.38,0,0,1-.27-.08.22.22,0,0,1-.08-.18.21.21,0,0,1,.08-.19.38.38,0,0,1,.27-.08H337V229h-.45a.37.37,0,0,1-.26-.07.24.24,0,0,1-.08-.2.22.22,0,0,1,.08-.18.37.37,0,0,1,.26-.08Z" transform="translate(-27.64 -98.5)"/><path class="cls-3" d="M347.28,233.89h-.88L344.25,229h-.54a.37.37,0,0,1-.26-.07.24.24,0,0,1-.08-.2.22.22,0,0,1,.08-.18.37.37,0,0,1,.26-.08h2a.41.41,0,0,1,.27.08.26.26,0,0,1,.08.19.27.27,0,0,1-.08.19.41.41,0,0,1-.27.07h-.87l1.92,4.34H347l1.88-4.34H348a.38.38,0,0,1-.27-.07.28.28,0,0,1-.08-.2.25.25,0,0,1,.08-.18.38.38,0,0,1,.27-.08h2a.38.38,0,0,1,.27.08.26.26,0,0,1,.08.19.27.27,0,0,1-.08.19.38.38,0,0,1-.27.07h-.53Z" transform="translate(-27.64 -98.5)"/><path class="cls-3" d="M357.31,231.31H352a2.5,2.5,0,0,0,.85,1.64,2.62,2.62,0,0,0,1.77.62,4.48,4.48,0,0,0,1.22-.19,3.21,3.21,0,0,0,1.05-.51.33.33,0,0,1,.21-.1.25.25,0,0,1,.17.08.24.24,0,0,1,.07.18.29.29,0,0,1-.1.21,2.67,2.67,0,0,1-1.06.58,4.66,4.66,0,0,1-1.56.27,3.08,3.08,0,0,1-2.25-.88,2.88,2.88,0,0,1-.9-2.13,2.65,2.65,0,0,1,.84-2,2.91,2.91,0,0,1,2.09-.81,2.86,2.86,0,0,1,2.12.83A2.93,2.93,0,0,1,357.31,231.31Zm-.53-.52a2.22,2.22,0,0,0-.82-1.41,2.55,2.55,0,0,0-3.15,0,2.27,2.27,0,0,0-.82,1.42Z" transform="translate(-27.64 -98.5)"/><path class="cls-3" d="M361.51,228.49v1.32a8.48,8.48,0,0,1,1.53-1.18,2,2,0,0,1,.94-.27,1.35,1.35,0,0,1,.86.32c.27.21.41.36.41.47a.27.27,0,0,1-.28.28l-.1,0-.16-.14a1.61,1.61,0,0,0-.38-.3.66.66,0,0,0-.32-.08,1.77,1.77,0,0,0-.83.27,12.07,12.07,0,0,0-1.67,1.34v2.86h2.32a.38.38,0,0,1,.27.08.24.24,0,0,1,.08.19.25.25,0,0,1-.08.18.38.38,0,0,1-.27.08h-4.11a.48.48,0,0,1-.27-.07.26.26,0,0,1-.08-.19.25.25,0,0,1,.08-.18.44.44,0,0,1,.27-.07H361V229h-1a.41.41,0,0,1-.27-.07.28.28,0,0,1-.08-.2.25.25,0,0,1,.08-.18.38.38,0,0,1,.27-.08Z" transform="translate(-27.64 -98.5)"/><path class="cls-3" d="M371.52,228.83a.38.38,0,0,1,.07-.26.27.27,0,0,1,.19-.08.26.26,0,0,1,.19.08.43.43,0,0,1,.08.28v.9a.37.37,0,0,1-.08.26.22.22,0,0,1-.19.08.28.28,0,0,1-.18-.06.44.44,0,0,1-.08-.23.85.85,0,0,0-.39-.62,2.37,2.37,0,0,0-1.35-.35,2.24,2.24,0,0,0-1.36.36.75.75,0,0,0-.37.6.72.72,0,0,0,.44.62,3,3,0,0,0,1.13.27,7.59,7.59,0,0,1,1.51.27,1.79,1.79,0,0,1,.9.6,1.35,1.35,0,0,1,.3.84,1.51,1.51,0,0,1-.64,1.18,2.92,2.92,0,0,1-1.88.52,3.14,3.14,0,0,1-2-.63.81.81,0,0,1,0,.28.28.28,0,0,1-.09.1.25.25,0,0,1-.15,0,.25.25,0,0,1-.18-.08.41.41,0,0,1-.08-.27v-1.08a.48.48,0,0,1,.07-.27.27.27,0,0,1,.19-.08.26.26,0,0,1,.19.08.25.25,0,0,1,.08.21.83.83,0,0,0,.14.48,1.59,1.59,0,0,0,.7.49,3.11,3.11,0,0,0,1.17.2,2.54,2.54,0,0,0,1.52-.38,1,1,0,0,0,.5-.8.87.87,0,0,0-.51-.78,3.82,3.82,0,0,0-1.48-.4,5.61,5.61,0,0,1-1.4-.26,1.44,1.44,0,0,1-.66-.48,1.16,1.16,0,0,1-.24-.7,1.2,1.2,0,0,1,.66-1.07,3.06,3.06,0,0,1,1.58-.39A2.79,2.79,0,0,1,371.52,228.83Z" transform="translate(-27.64 -98.5)"/><path class="cls-3" d="M379,233.89v-.76a3.72,3.72,0,0,1-2.44,1,2.18,2.18,0,0,1-1.47-.47,1.53,1.53,0,0,1-.53-1.17,1.69,1.69,0,0,1,.7-1.33,3.18,3.18,0,0,1,2-.57,7.43,7.43,0,0,1,.78,0,8.76,8.76,0,0,1,.92.15v-.85a.94.94,0,0,0-.4-.75,1.88,1.88,0,0,0-1.19-.32,6,6,0,0,0-1.72.36l-.25.06a.21.21,0,0,1-.17-.07.26.26,0,0,1-.08-.19.24.24,0,0,1,.07-.17,2.19,2.19,0,0,1,.7-.25,6,6,0,0,1,1.47-.26,2.27,2.27,0,0,1,1.54.48,1.47,1.47,0,0,1,.56,1.11v3.46h.7a.4.4,0,0,1,.27.08.24.24,0,0,1,.08.19.25.25,0,0,1-.08.18.4.4,0,0,1-.27.08Zm0-2.61a4.69,4.69,0,0,0-.78-.15,6,6,0,0,0-.87,0,2.85,2.85,0,0,0-1.78.49,1.08,1.08,0,0,0-.48.88,1,1,0,0,0,.37.8,1.64,1.64,0,0,0,1.08.32,3,3,0,0,0,1.26-.27,4.58,4.58,0,0,0,1.2-.86Z" transform="translate(-27.64 -98.5)"/><path class="cls-3" d="M384,228.49h2.84a.37.37,0,0,1,.26.08.22.22,0,0,1,.08.19.24.24,0,0,1-.08.19.37.37,0,0,1-.26.07H384v3.48a.94.94,0,0,0,.36.76,1.59,1.59,0,0,0,1.07.31,4.4,4.4,0,0,0,1.14-.16,4.05,4.05,0,0,0,1-.36.46.46,0,0,1,.21-.08.25.25,0,0,1,.17.08.25.25,0,0,1,.08.18.29.29,0,0,1-.08.18,2.86,2.86,0,0,1-1,.44,5,5,0,0,1-1.47.24,2.25,2.25,0,0,1-1.46-.43,1.39,1.39,0,0,1-.54-1.16V229h-1a.41.41,0,0,1-.27-.07.28.28,0,0,1-.08-.2.25.25,0,0,1,.08-.18.41.41,0,0,1,.27-.08h1V227a.38.38,0,0,1,.07-.27.27.27,0,0,1,.38,0,.38.38,0,0,1,.08.27Z" transform="translate(-27.64 -98.5)"/><path class="cls-3" d="M393,228.49v4.87h2.06a.38.38,0,0,1,.27.08.21.21,0,0,1,.08.19.22.22,0,0,1-.08.18.38.38,0,0,1-.27.08h-4.64a.37.37,0,0,1-.26-.08.23.23,0,0,1-.09-.18.22.22,0,0,1,.09-.19.37.37,0,0,1,.26-.08h2.06V229H391a.41.41,0,0,1-.27-.07.27.27,0,0,1-.08-.19.26.26,0,0,1,.08-.19.38.38,0,0,1,.27-.08Zm0-2.68v1.35h-.77v-1.35Z" transform="translate(-27.64 -98.5)"/><path class="cls-3" d="M403.33,231.2a2.79,2.79,0,0,1-.85,2.05,2.85,2.85,0,0,1-2.07.84,2.81,2.81,0,0,1-2.07-.85,2.87,2.87,0,0,1,0-4.08,2.81,2.81,0,0,1,2.07-.85,2.85,2.85,0,0,1,2.07.84A2.79,2.79,0,0,1,403.33,231.2Zm-.53,0a2.25,2.25,0,0,0-.7-1.67,2.4,2.4,0,0,0-3.39,0,2.34,2.34,0,0,0,0,3.34,2.39,2.39,0,0,0,4.09-1.67Z" transform="translate(-27.64 -98.5)"/><path class="cls-3" d="M406.37,228.49v.79a3.85,3.85,0,0,1,1-.76,2.49,2.49,0,0,1,2.09,0,1.85,1.85,0,0,1,.63.62,1.62,1.62,0,0,1,.29.89v3.29h.44a.41.41,0,0,1,.27.08.24.24,0,0,1,.08.19.25.25,0,0,1-.08.18.41.41,0,0,1-.27.08h-1.4a.43.43,0,0,1-.28-.08.25.25,0,0,1-.08-.18.24.24,0,0,1,.08-.19.43.43,0,0,1,.28-.08h.43v-3.2a1.23,1.23,0,0,0-.4-.94,1.5,1.5,0,0,0-1.09-.39,1.92,1.92,0,0,0-.89.21,4.79,4.79,0,0,0-1.09,1v3.28H407a.38.38,0,0,1,.27.08.21.21,0,0,1,.08.19.22.22,0,0,1-.08.18.38.38,0,0,1-.27.08h-1.7a.38.38,0,0,1-.27-.08.25.25,0,0,1-.08-.18.24.24,0,0,1,.08-.19.38.38,0,0,1,.27-.08h.59V229h-.44a.38.38,0,0,1-.27-.07.28.28,0,0,1-.08-.2.25.25,0,0,1,.08-.18.38.38,0,0,1,.27-.08Z" transform="translate(-27.64 -98.5)"/><path class="cls-3" d="M418,233.89h-.82l-1.48-5.18-1.45,5.18h-.82l-.78-6.77h-.19a.41.41,0,0,1-.27-.07.27.27,0,0,1,0-.38.41.41,0,0,1,.27-.07h1.94a.43.43,0,0,1,.28.07.27.27,0,0,1,0,.38.43.43,0,0,1-.28.07h-1.22l.69,6.17,1.42-5.08h.8l1.45,5.08.68-6.17H417a.38.38,0,0,1-.27-.07.27.27,0,0,1,0-.38.38.38,0,0,1,.27-.07h1.93a.4.4,0,0,1,.27.07.27.27,0,0,1,0,.38.4.4,0,0,1-.27.07h-.2Z" transform="translate(-27.64 -98.5)"/><path class="cls-3" d="M423.65,228.49v4.87h2.06a.4.4,0,0,1,.27.08.24.24,0,0,1,.08.19.25.25,0,0,1-.08.18.4.4,0,0,1-.27.08h-4.64a.41.41,0,0,1-.27-.08.25.25,0,0,1-.08-.18.24.24,0,0,1,.08-.19.41.41,0,0,1,.27-.08h2.06V229H421.6a.41.41,0,0,1-.27-.07.27.27,0,0,1-.08-.19.22.22,0,0,1,.08-.19.38.38,0,0,1,.27-.08Zm0-2.68v1.35h-.77v-1.35Z" transform="translate(-27.64 -98.5)"/><path class="cls-3" d="M430,228.49h2.84a.38.38,0,0,1,.27.08.22.22,0,0,1,.08.19.24.24,0,0,1-.08.19.38.38,0,0,1-.27.07H430v3.48a1,1,0,0,0,.37.76,1.59,1.59,0,0,0,1.07.31,4.4,4.4,0,0,0,1.14-.16,4.23,4.23,0,0,0,1-.36.46.46,0,0,1,.21-.08.25.25,0,0,1,.17.08.25.25,0,0,1,.08.18.29.29,0,0,1-.08.18,2.86,2.86,0,0,1-1,.44,5,5,0,0,1-1.48.24,2.24,2.24,0,0,1-1.45-.43,1.4,1.4,0,0,1-.55-1.16V229h-1a.4.4,0,0,1-.27-.07.28.28,0,0,1-.08-.2.25.25,0,0,1,.08-.18.4.4,0,0,1,.27-.08h1V227a.38.38,0,0,1,.08-.27.27.27,0,0,1,.38,0,.38.38,0,0,1,.07.27Z" transform="translate(-27.64 -98.5)"/><path class="cls-3" d="M437,226.07v3.22a3.13,3.13,0,0,1,1-.76,2.25,2.25,0,0,1,1-.22,2.35,2.35,0,0,1,1,.21,1.79,1.79,0,0,1,.71.66,1.73,1.73,0,0,1,.29.94v3.24h.58a.38.38,0,0,1,.27.08.21.21,0,0,1,.08.19.22.22,0,0,1-.08.18.38.38,0,0,1-.27.08h-1.7a.4.4,0,0,1-.27-.08.25.25,0,0,1-.08-.18.24.24,0,0,1,.08-.19.4.4,0,0,1,.27-.08h.59v-3.2a1.25,1.25,0,0,0-.41-.95,1.86,1.86,0,0,0-2.11-.1,6.8,6.8,0,0,0-1,.94v3.31h.59a.38.38,0,0,1,.27.08.21.21,0,0,1,.08.19.22.22,0,0,1-.08.18.38.38,0,0,1-.27.08h-1.7a.38.38,0,0,1-.27-.08.22.22,0,0,1-.08-.18.21.21,0,0,1,.08-.19.38.38,0,0,1,.27-.08h.59V226.6h-.71a.37.37,0,0,1-.26-.08.22.22,0,0,1-.08-.19.24.24,0,0,1,.08-.19.37.37,0,0,1,.26-.07Z" transform="translate(-27.64 -98.5)"/><path class="cls-3" d="M456.85,229.56h-5.71a.37.37,0,0,1-.26-.08.23.23,0,0,1-.09-.19.25.25,0,0,1,.09-.19.37.37,0,0,1,.26-.07h5.71a.41.41,0,0,1,.27.07.28.28,0,0,1,.08.2.25.25,0,0,1-.08.18A.41.41,0,0,1,456.85,229.56Zm0,1.87h-5.71a.37.37,0,0,1-.26-.07.25.25,0,0,1,0-.38.37.37,0,0,1,.26-.07h5.71a.41.41,0,0,1,.27.07.27.27,0,0,1,0,.38A.41.41,0,0,1,456.85,231.43Z" transform="translate(-27.64 -98.5)"/><path class="cls-3" d="M467.13,226.2h1.66l-.44,3a.57.57,0,0,1-.13.33.35.35,0,0,1-.26.1.32.32,0,0,1-.25-.1.51.51,0,0,1-.14-.33Zm2.67,0h1.66l-.43,3a.64.64,0,0,1-.14.33.33.33,0,0,1-.25.1.33.33,0,0,1-.26-.1.51.51,0,0,1-.13-.33Z" transform="translate(-27.64 -98.5)"/><path class="cls-3" d="M475.82,230.9v2.46h1.79a.38.38,0,0,1,.27.08.21.21,0,0,1,.08.19.22.22,0,0,1-.08.18.38.38,0,0,1-.27.08h-3a.37.37,0,0,1-.26-.08.22.22,0,0,1-.08-.18.21.21,0,0,1,.08-.19.37.37,0,0,1,.26-.08h.71v-6.24h-.71a.37.37,0,0,1-.26-.07.27.27,0,0,1,0-.38.37.37,0,0,1,.26-.07h3a2.48,2.48,0,0,1,1.76.63,2,2,0,0,1,.69,1.49,1.84,1.84,0,0,1-.23.91,1.88,1.88,0,0,1-.53.64,3.43,3.43,0,0,1-1,.51,2.88,2.88,0,0,1-.9.12Zm0-.53h1.67a2.39,2.39,0,0,0,1.09-.25,1.89,1.89,0,0,0,.74-.64,1.41,1.41,0,0,0-.3-1.87,1.92,1.92,0,0,0-1.34-.49h-1.86Z" transform="translate(-27.64 -98.5)"/><path class="cls-3" d="M486.12,233.89v-.76a3.74,3.74,0,0,1-2.44,1,2.14,2.14,0,0,1-1.47-.47,1.53,1.53,0,0,1-.53-1.17,1.67,1.67,0,0,1,.7-1.33,3.14,3.14,0,0,1,2-.57,7.43,7.43,0,0,1,.78,0,9.2,9.2,0,0,1,.92.15v-.85a1,1,0,0,0-.4-.75,1.93,1.93,0,0,0-1.2-.32,6,6,0,0,0-1.71.36l-.26.06a.23.23,0,0,1-.17-.07.25.25,0,0,1-.07-.19.24.24,0,0,1,.06-.17,2.42,2.42,0,0,1,.71-.25,5.81,5.81,0,0,1,1.47-.26,2.27,2.27,0,0,1,1.54.48,1.47,1.47,0,0,1,.56,1.11v3.46h.69a.43.43,0,0,1,.28.08.24.24,0,0,1,.08.19.25.25,0,0,1-.08.18.43.43,0,0,1-.28.08Zm0-2.61a4.89,4.89,0,0,0-.78-.15,6.08,6.08,0,0,0-.87,0,2.85,2.85,0,0,0-1.78.49,1.08,1.08,0,0,0-.48.88,1,1,0,0,0,.37.8,1.6,1.6,0,0,0,1.08.32,3,3,0,0,0,1.26-.27,4.58,4.58,0,0,0,1.2-.86Z" transform="translate(-27.64 -98.5)"/><path class="cls-3" d="M494.06,233.89v-.77a3.4,3.4,0,0,1-2.32,1,1.51,1.51,0,0,1-1.16-.42,1.77,1.77,0,0,1-.52-1.27V229h-.7a.38.38,0,0,1-.27-.07.24.24,0,0,1-.08-.2.22.22,0,0,1,.08-.18.38.38,0,0,1,.27-.08h1.22v3.91a1.14,1.14,0,0,0,.33.84,1.07,1.07,0,0,0,.81.33,3.13,3.13,0,0,0,2.34-1.17V229h-1a.41.41,0,0,1-.27-.07.28.28,0,0,1-.08-.2.25.25,0,0,1,.08-.18.41.41,0,0,1,.27-.08h1.49v4.87H495a.38.38,0,0,1,.27.08.24.24,0,0,1,.08.19.25.25,0,0,1-.08.18.38.38,0,0,1-.27.08Z" transform="translate(-27.64 -98.5)"/><path class="cls-3" d="M500.19,226.07v7.29h2.05a.43.43,0,0,1,.28.08.24.24,0,0,1,.08.19.25.25,0,0,1-.08.18.43.43,0,0,1-.28.08h-4.63a.38.38,0,0,1-.27-.08.25.25,0,0,1-.08-.18.24.24,0,0,1,.08-.19.38.38,0,0,1,.27-.08h2.05V226.6h-1.5a.43.43,0,0,1-.28-.08.26.26,0,0,1-.08-.19.27.27,0,0,1,.08-.19.43.43,0,0,1,.28-.07Z" transform="translate(-27.64 -98.5)"/><path class="cls-3" d="M505.41,226.2h1.65l-.43,3a.57.57,0,0,1-.14.33.34.34,0,0,1-.26.1.33.33,0,0,1-.25-.1.57.57,0,0,1-.14-.33Zm2.67,0h1.65l-.43,3a.57.57,0,0,1-.14.33.32.32,0,0,1-.25.1.34.34,0,0,1-.26-.1.51.51,0,0,1-.13-.33Z" transform="translate(-27.64 -98.5)"/><path class="cls-3" d="M514.21,232h1.64l-1.76,2.89a.93.93,0,0,1-.21.26.28.28,0,0,1-.18.06.35.35,0,0,1-.25-.09.3.3,0,0,1-.1-.23.81.81,0,0,1,0-.19Zm.91-3.52h.23a.85.85,0,0,1,.84.84.83.83,0,0,1-.25.61.79.79,0,0,1-.59.25h-.23a.84.84,0,0,1-.84-.84.85.85,0,0,1,.84-.86Z" transform="translate(-27.64 -98.5)"/><ellipse class="cls-2" cx="156.61" cy="114.09" rx="85.04" ry="70.87"/><path class="cls-3" d="M108.57,194.72v3.1h1.82a1,1,0,0,1,.66.18.65.65,0,0,1,0,.92,1,1,0,0,1-.66.18h-3.86a1,1,0,0,1-.65-.18.63.63,0,0,1,0-.92,1,1,0,0,1,.65-.18h.76v-3.1h-.61a1,1,0,0,1-.65-.18.63.63,0,0,1,0-.92,1,1,0,0,1,.65-.18h.61V193a1.77,1.77,0,0,1,.63-1.39,2.65,2.65,0,0,1,1.81-.55,8.21,8.21,0,0,1,1.23.1,1.81,1.81,0,0,1,.89.27.56.56,0,0,1,.2.44.65.65,0,0,1-.18.48.59.59,0,0,1-.43.19,2.06,2.06,0,0,1-.35-.05,7.7,7.7,0,0,0-1.4-.15,1.45,1.45,0,0,0-.88.19.57.57,0,0,0-.24.47v.48h2a1,1,0,0,1,.66.18.65.65,0,0,1,0,.92,1,1,0,0,1-.66.18Z" transform="translate(-27.64 -98.5)"/><path class="cls-3" d="M119,193.44v4.38a.82.82,0,0,1,.59.18.63.63,0,0,1,0,.92,1,1,0,0,1-.66.18h-1.21v-.3a5.59,5.59,0,0,1-1,.38,4,4,0,0,1-.94.12,2.2,2.2,0,0,1-1.09-.26,2,2,0,0,1-.73-.73,1.68,1.68,0,0,1-.19-.84v-2.75h-.22a1,1,0,0,1-.66-.18.63.63,0,0,1,0-.92,1,1,0,0,1,.66-.18h1.49v3.8a.82.82,0,0,0,.2.6.86.86,0,0,0,.6.19,2.38,2.38,0,0,0,.83-.16,5.57,5.57,0,0,0,1.1-.55v-2.6h-.46a1,1,0,0,1-.66-.18.65.65,0,0,1,0-.92,1,1,0,0,1,.66-.18Z" transform="translate(-27.64 -98.5)"/><path class="cls-3" d="M122.6,193.44v.43a2.4,2.4,0,0,1,.77-.45,2.67,2.67,0,0,1,.91-.15,2.34,2.34,0,0,1,1.79.71,2.05,2.05,0,0,1,.53,1.47v2.37a.83.83,0,0,1,.59.18.63.63,0,0,1,0,.92,1,1,0,0,1-.66.18h-1.15a1,1,0,0,1-.66-.18.65.65,0,0,1,0-.92.86.86,0,0,1,.6-.18v-2.41a.76.76,0,0,0-.23-.61,1.27,1.27,0,0,0-.87-.25,1.73,1.73,0,0,0-.78.17,3.66,3.66,0,0,0-.84.73v2.37a1.39,1.39,0,0,1,.63.09.61.61,0,0,1,.31.55.6.6,0,0,1-.2.46,1,1,0,0,1-.66.18h-1.45a1,1,0,0,1-.65-.18.57.57,0,0,1-.2-.46.62.62,0,0,1,.3-.55,1.44,1.44,0,0,1,.64-.09v-3.1a.86.86,0,0,1-.6-.18.6.6,0,0,1-.19-.46.57.57,0,0,1,.2-.46.94.94,0,0,1,.65-.18Z" transform="translate(-27.64 -98.5)"/><path class="cls-3" d="M131.23,194.72v2.56a.68.68,0,0,0,.17.54,1.51,1.51,0,0,0,.93.21,4,4,0,0,0,1.81-.42,1.17,1.17,0,0,1,.5-.16.6.6,0,0,1,.43.18.65.65,0,0,1,.18.46.55.55,0,0,1-.2.43,3.07,3.07,0,0,1-1.2.54,6.11,6.11,0,0,1-1.52.24,2.66,2.66,0,0,1-1.78-.51,1.59,1.59,0,0,1-.6-1.26v-2.81h-.46a1,1,0,0,1-.66-.18.65.65,0,0,1,0-.92,1,1,0,0,1,.66-.18H130v-1.15a1,1,0,0,1,.18-.66.65.65,0,0,1,.92,0,1,1,0,0,1,.18.66v1.15h2.36a1,1,0,0,1,.66.18.65.65,0,0,1,0,.92,1,1,0,0,1-.66.18Z" transform="translate(-27.64 -98.5)"/><path class="cls-3" d="M139.83,193.44v4.38h1.53a1,1,0,0,1,.66.18.63.63,0,0,1,0,.92,1,1,0,0,1-.66.18H137a1,1,0,0,1-.66-.18.65.65,0,0,1,0-.92,1,1,0,0,1,.66-.18h1.53v-3.1h-1a1,1,0,0,1-.66-.18.63.63,0,0,1,0-.92,1,1,0,0,1,.66-.18Zm-.17-2.42v1.35h-1.52V191Z" transform="translate(-27.64 -98.5)"/><path class="cls-3" d="M150.17,196.38a2.77,2.77,0,0,1-.41,1.42,2.86,2.86,0,0,1-1.21,1.09,3.69,3.69,0,0,1-3.36,0,2.92,2.92,0,0,1-1.21-1.09,2.74,2.74,0,0,1-.42-1.45,3,3,0,0,1,.42-1.5,3,3,0,0,1,1.22-1.16,3.42,3.42,0,0,1,1.66-.43,3.51,3.51,0,0,1,1.68.44,3,3,0,0,1,1.22,1.16A3.09,3.09,0,0,1,150.17,196.38Zm-1.28,0a1.66,1.66,0,0,0-.44-1.13,2,2,0,0,0-1.59-.7,2,2,0,0,0-1.44.55,1.72,1.72,0,0,0-.58,1.29,1.5,1.5,0,0,0,.58,1.12,2.27,2.27,0,0,0,2.89,0A1.52,1.52,0,0,0,148.89,196.38Z" transform="translate(-27.64 -98.5)"/><path class="cls-3" d="M153.22,193.44v.43a2.35,2.35,0,0,1,.76-.45,2.77,2.77,0,0,1,.92-.15,2.34,2.34,0,0,1,1.79.71,2,2,0,0,1,.52,1.47v2.37a.86.86,0,0,1,.6.18.63.63,0,0,1,0,.92,1,1,0,0,1-.66.18H156a1,1,0,0,1-.66-.18.65.65,0,0,1,0-.92.86.86,0,0,1,.6-.18v-2.41a.76.76,0,0,0-.23-.61,1.28,1.28,0,0,0-.88-.25,1.71,1.71,0,0,0-.77.17,3.66,3.66,0,0,0-.84.73v2.37a1.39,1.39,0,0,1,.63.09.62.62,0,0,1,.31.55.6.6,0,0,1-.2.46,1,1,0,0,1-.66.18h-1.45a1,1,0,0,1-.66-.18.59.59,0,0,1-.19-.46.62.62,0,0,1,.3-.55,1.44,1.44,0,0,1,.64-.09v-3.1a.86.86,0,0,1-.6-.18.6.6,0,0,1-.19-.46.59.59,0,0,1,.19-.46,1,1,0,0,1,.66-.18Z" transform="translate(-27.64 -98.5)"/><path class="cls-3" d="M170.58,194.72H168a1,1,0,0,1-.66-.18.63.63,0,0,1,0-.92,1,1,0,0,1,.66-.18h3.88v5.93a2.26,2.26,0,0,1-1.15,2,2.53,2.53,0,0,1-1.33.36h-1.44a1,1,0,0,1-.66-.17.6.6,0,0,1-.19-.46.61.61,0,0,1,.19-.47,1,1,0,0,1,.66-.17h1.41a1.26,1.26,0,0,0,.91-.32,1.09,1.09,0,0,0,.32-.8Zm.52-3.7v1.35h-1.52V191Z" transform="translate(-27.64 -98.5)"/><path class="cls-3" d="M180.19,193.44v4.38a.85.85,0,0,1,.59.18.63.63,0,0,1,0,.92,1,1,0,0,1-.66.18h-1.21v-.3a5.85,5.85,0,0,1-1,.38,4,4,0,0,1-.94.12,2.2,2.2,0,0,1-1.09-.26,1.9,1.9,0,0,1-.73-.73,1.68,1.68,0,0,1-.2-.84v-2.75h-.21a1,1,0,0,1-.66-.18.63.63,0,0,1,0-.92,1,1,0,0,1,.66-.18h1.49v3.8a.82.82,0,0,0,.2.6.86.86,0,0,0,.6.19,2.43,2.43,0,0,0,.83-.16,5.57,5.57,0,0,0,1.1-.55v-2.6h-.46a1,1,0,0,1-.66-.18.63.63,0,0,1,0-.92,1,1,0,0,1,.66-.18Z" transform="translate(-27.64 -98.5)"/><path class="cls-3" d="M186.51,194.94a2.41,2.41,0,0,0-.66-.29,2.39,2.39,0,0,0-.71-.1,2.44,2.44,0,0,0-1.18.24c-.13.07-.19.15-.19.23s.08.19.26.28a3.16,3.16,0,0,0,.89.2,9.57,9.57,0,0,1,1.77.35,2.18,2.18,0,0,1,1,.68,1.56,1.56,0,0,1,.35,1,1.4,1.4,0,0,1-.6,1.15,3.62,3.62,0,0,1-2.25.66,5.56,5.56,0,0,1-1-.09,3.78,3.78,0,0,1-.86-.29.63.63,0,0,1-.2.13.54.54,0,0,1-.22,0,.57.57,0,0,1-.47-.2,1,1,0,0,1-.18-.65v-.43a1,1,0,0,1,.18-.66.6.6,0,0,1,.46-.2.63.63,0,0,1,.39.13.91.91,0,0,1,.24.44,2.06,2.06,0,0,0,.7.38,3.41,3.41,0,0,0,.95.13,2.86,2.86,0,0,0,1.37-.28c.15-.09.23-.19.23-.28s-.11-.31-.33-.42a5.1,5.1,0,0,0-1.37-.27,3.94,3.94,0,0,1-2.05-.62,1.43,1.43,0,0,1-.52-1.12,1.38,1.38,0,0,1,.58-1.14,3.18,3.18,0,0,1,2.05-.63,3.89,3.89,0,0,1,.85.09,3.05,3.05,0,0,1,.79.26.64.64,0,0,1,.22-.13.49.49,0,0,1,.19-.05.55.55,0,0,1,.43.2,1,1,0,0,1,.18.65v.32a1.18,1.18,0,0,1-.1.56.65.65,0,0,1-.54.29.66.66,0,0,1-.41-.14A.64.64,0,0,1,186.51,194.94Z" transform="translate(-27.64 -98.5)"/><path class="cls-3" d="M192.47,194.72v2.56a.65.65,0,0,0,.17.54,1.51,1.51,0,0,0,.93.21,4,4,0,0,0,1.81-.42,1.14,1.14,0,0,1,.49-.16.62.62,0,0,1,.44.18.65.65,0,0,1,.18.46.58.58,0,0,1-.2.43,3.07,3.07,0,0,1-1.2.54,6.11,6.11,0,0,1-1.52.24,2.66,2.66,0,0,1-1.78-.51,1.59,1.59,0,0,1-.6-1.26v-2.81h-.46a1,1,0,0,1-.66-.18.65.65,0,0,1,0-.92,1,1,0,0,1,.66-.18h.46v-1.15a1,1,0,0,1,.18-.66.65.65,0,0,1,.92,0,1,1,0,0,1,.18.66v1.15h2.36a1,1,0,0,1,.66.18.65.65,0,0,1,0,.92,1,1,0,0,1-.66.18Z" transform="translate(-27.64 -98.5)"/><path class="cls-3" d="M198.57,198.77a1,1,0,0,1-.27.26.49.49,0,0,1-.25.05.6.6,0,0,1-.47-.19,1,1,0,0,1-.18-.65v-.86a1,1,0,0,1,.18-.66.6.6,0,0,1,.47-.2.57.57,0,0,1,.37.12.74.74,0,0,1,.24.4,1,1,0,0,0,.17.38,2.24,2.24,0,0,0,.64.39,2.56,2.56,0,0,0,1,.2,2.37,2.37,0,0,0,1.4-.4.72.72,0,0,0,.35-.6.67.67,0,0,0-.17-.44,1.22,1.22,0,0,0-.55-.35,9,9,0,0,0-1.11-.26,5.91,5.91,0,0,1-1.59-.46,2.11,2.11,0,0,1-.84-.78,2,2,0,0,1-.31-1.07,2.11,2.11,0,0,1,.76-1.61,2.88,2.88,0,0,1,2-.69,3.78,3.78,0,0,1,.91.11,2.76,2.76,0,0,1,.76.34.75.75,0,0,1,.5-.25.6.6,0,0,1,.46.2,1,1,0,0,1,.17.65v1a1,1,0,0,1-.17.66.66.66,0,0,1-.87,0,.74.74,0,0,1-.21-.42,1.14,1.14,0,0,0-.17-.46,1.36,1.36,0,0,0-.54-.4,2.17,2.17,0,0,0-.84-.16,1.72,1.72,0,0,0-1.09.32.89.89,0,0,0-.4.67.76.76,0,0,0,.16.46,1.11,1.11,0,0,0,.48.35,12,12,0,0,0,1.2.28,7.25,7.25,0,0,1,1.5.42A2,2,0,0,1,203.5,197a1.89,1.89,0,0,1-.67,1.52,3.41,3.41,0,0,1-2.25.74,4.34,4.34,0,0,1-1-.12A4.55,4.55,0,0,1,198.57,198.77Z" transform="translate(-27.64 -98.5)"/><path class="cls-3" d="M209.24,199.1v-.3a3.92,3.92,0,0,1-1.06.38,4.62,4.62,0,0,1-1.05.13,2.46,2.46,0,0,1-1.67-.55,1.55,1.55,0,0,1-.64-1.2,1.94,1.94,0,0,1,.82-1.49,3.39,3.39,0,0,1,2.26-.69,8.72,8.72,0,0,1,1.34.12v-.3a.55.55,0,0,0-.25-.47,1.67,1.67,0,0,0-.93-.18,6.87,6.87,0,0,0-1.47.22,2.23,2.23,0,0,1-.53.09.59.59,0,0,1-.43-.19.64.64,0,0,1-.18-.47.51.51,0,0,1,.07-.28.52.52,0,0,1,.17-.19,2.22,2.22,0,0,1,.47-.17,7.43,7.43,0,0,1,1-.21,6.1,6.1,0,0,1,.89-.08,2.89,2.89,0,0,1,1.85.52,1.68,1.68,0,0,1,.66,1.4v2.63h.22a1,1,0,0,1,.65.18.63.63,0,0,1,0,.92,1,1,0,0,1-.65.18Zm0-2.29a7.37,7.37,0,0,0-1.41-.15,2.35,2.35,0,0,0-1.34.38.66.66,0,0,0-.35.49.34.34,0,0,0,.17.3,1.57,1.57,0,0,0,.85.2,3.5,3.5,0,0,0,1-.18,3.7,3.7,0,0,0,1-.49Z" transform="translate(-27.64 -98.5)"/><path class="cls-3" d="M215,199.05l-2.21-4.33a.79.79,0,0,1-.47-.21.6.6,0,0,1-.16-.43.59.59,0,0,1,.19-.46,1,1,0,0,1,.66-.18h1.16a1,1,0,0,1,.66.18.63.63,0,0,1,0,.92.9.9,0,0,1-.62.18l1.51,2.93,1.49-2.93a.86.86,0,0,1-.6-.18.63.63,0,0,1,0-.92,1,1,0,0,1,.65-.18h1.21a1,1,0,0,1,.65.18.59.59,0,0,1,.19.46.63.63,0,0,1-.16.44.82.82,0,0,1-.5.2l-2.93,5.77a1.42,1.42,0,0,1,.63.09.64.64,0,0,1,.1,1,1,1,0,0,1-.66.17H213a1,1,0,0,1-.66-.17.6.6,0,0,1-.19-.46.61.61,0,0,1,.19-.47,1,1,0,0,1,.66-.17h1.27Z" transform="translate(-27.64 -98.5)"/><path class="cls-3" d="M224,193.44v4.38h1.54a1,1,0,0,1,.65.18.63.63,0,0,1,0,.92,1,1,0,0,1-.65.18h-4.35a1,1,0,0,1-.65-.18.63.63,0,0,1,0-.92,1,1,0,0,1,.65-.18h1.54v-3.1h-1a1,1,0,0,1-.66-.18.65.65,0,0,1,0-.92,1,1,0,0,1,.66-.18Zm-.17-2.42v1.35h-1.52V191Z" transform="translate(-27.64 -98.5)"/><path class="cls-3" d="M229.76,193.44v.43a2.51,2.51,0,0,1,.77-.45,2.73,2.73,0,0,1,.92-.15,2.34,2.34,0,0,1,1.79.71,2,2,0,0,1,.52,1.47v2.37a.86.86,0,0,1,.6.18.65.65,0,0,1,0,.92,1,1,0,0,1-.66.18h-1.15a1,1,0,0,1-.66-.18.63.63,0,0,1,0-.92.86.86,0,0,1,.6-.18v-2.41a.76.76,0,0,0-.23-.61,1.3,1.3,0,0,0-.88-.25,1.71,1.71,0,0,0-.77.17,3.67,3.67,0,0,0-.85.73v2.37a1.44,1.44,0,0,1,.64.09.62.62,0,0,1,.3.55.59.59,0,0,1-.19.46,1,1,0,0,1-.66.18H228.4a1,1,0,0,1-.66-.18.59.59,0,0,1-.19-.46.62.62,0,0,1,.3-.55,1.41,1.41,0,0,1,.64-.09v-3.1a.86.86,0,0,1-.6-.18.6.6,0,0,1-.19-.46.59.59,0,0,1,.19-.46,1,1,0,0,1,.66-.18Z" transform="translate(-27.64 -98.5)"/><path class="cls-3" d="M238.25,196a7.15,7.15,0,0,1,.36-2.21,10.87,10.87,0,0,1,.83-1.83,4,4,0,0,1,.6-.89.67.67,0,0,1,.89,0,.61.61,0,0,1,.19.45.86.86,0,0,1-.15.43,9.54,9.54,0,0,0-1,2.07,6.23,6.23,0,0,0-.31,2,6.32,6.32,0,0,0,.31,2,9.54,9.54,0,0,0,1,2.07.83.83,0,0,1,.15.43.58.58,0,0,1-.19.44.6.6,0,0,1-.46.19.59.59,0,0,1-.4-.15,3.59,3.59,0,0,1-.66-1,9.61,9.61,0,0,1-.81-1.82A7.09,7.09,0,0,1,238.25,196Z" transform="translate(-27.64 -98.5)"/><path class="cls-3" d="M246.91,196a7.24,7.24,0,0,1-.36,2.21,11.18,11.18,0,0,1-.83,1.82,4,4,0,0,1-.6.89.65.65,0,0,1-.43.17.62.62,0,0,1-.46-.19.6.6,0,0,1-.18-.44.9.9,0,0,1,.14-.43,10.12,10.12,0,0,0,1-2.07,6.62,6.62,0,0,0,.3-2,6.52,6.52,0,0,0-.3-2,10.12,10.12,0,0,0-1-2.07.93.93,0,0,1-.14-.43.62.62,0,0,1,.64-.63.61.61,0,0,1,.41.15,4,4,0,0,1,.66,1,11.49,11.49,0,0,1,.81,1.82A7.14,7.14,0,0,1,246.91,196Z" transform="translate(-27.64 -98.5)"/><path class="cls-3" d="M261.93,196a1.63,1.63,0,0,1,.31.5,2.8,2.8,0,0,1,.08.77v2a.41.41,0,0,0,.45.5.6.6,0,0,1,.43.2.65.65,0,0,1,0,.9.63.63,0,0,1-.48.19,1.53,1.53,0,0,1-.8-.22,1.9,1.9,0,0,1-.68-.72,1.54,1.54,0,0,1-.18-.75v-2.25a.65.65,0,0,0-.08-.37.6.6,0,0,0-.38-.13.68.68,0,0,1-.44-.21A.63.63,0,0,1,260,196a.66.66,0,0,1,.15-.45.67.67,0,0,1,.44-.2.59.59,0,0,0,.36-.11.63.63,0,0,0,.1-.39v-2.13a1.65,1.65,0,0,1,.5-1.19,1.59,1.59,0,0,1,1.15-.5.64.64,0,0,1,.49.19.6.6,0,0,1,.19.46.61.61,0,0,1-.17.44.65.65,0,0,1-.43.2c-.18,0-.29.05-.34.11a.62.62,0,0,0-.11.39v2a2.18,2.18,0,0,1-.08.66A1.59,1.59,0,0,1,261.93,196Z" transform="translate(-27.64 -98.5)"/><path class="cls-3" d="M126.52,208.19,122.43,217a1.36,1.36,0,0,1-.28.43.59.59,0,0,1-.39.13.65.65,0,0,1-.46-.18.63.63,0,0,1-.19-.43,1.34,1.34,0,0,1,.15-.49l4.11-8.81a1.32,1.32,0,0,1,.27-.43.65.65,0,0,1,.84.05.55.55,0,0,1,.19.42A1.29,1.29,0,0,1,126.52,208.19Z" transform="translate(-27.64 -98.5)"/><path class="cls-3" d="M134.18,208.19l-4.1,8.82a1.08,1.08,0,0,1-.28.43.59.59,0,0,1-.39.13.64.64,0,0,1-.45-.18.59.59,0,0,1-.19-.43,1.34,1.34,0,0,1,.15-.49l4.1-8.81a1.49,1.49,0,0,1,.28-.43.59.59,0,0,1,.39-.13.64.64,0,0,1,.45.18.58.58,0,0,1,.18.42A1.43,1.43,0,0,1,134.18,208.19Z" transform="translate(-27.64 -98.5)"/><path class="cls-3" d="M148.84,210.68a.68.68,0,0,1,.48-.22.59.59,0,0,1,.45.2,1,1,0,0,1,.18.65v.82a1,1,0,0,1-.18.66.63.63,0,0,1-.47.19.67.67,0,0,1-.44-.15.86.86,0,0,1-.2-.46.74.74,0,0,0-.36-.51,2.51,2.51,0,0,0-1.29-.3,2,2,0,0,0-1.45.53,1.76,1.76,0,0,0-.55,1.34,1.45,1.45,0,0,0,.53,1.18,2.69,2.69,0,0,0,1.73.43,4.33,4.33,0,0,0,1.31-.16,1.75,1.75,0,0,0,.56-.34.77.77,0,0,1,.49-.24.61.61,0,0,1,.45.19.62.62,0,0,1,.19.46c0,.28-.19.55-.58.8a4.56,4.56,0,0,1-2.52.57,3.8,3.8,0,0,1-2.31-.62,2.66,2.66,0,0,1-1.12-2.27,3,3,0,0,1,.91-2.25,3.2,3.2,0,0,1,2.37-.9,4.34,4.34,0,0,1,1,.1A3.47,3.47,0,0,1,148.84,210.68Z" transform="translate(-27.64 -98.5)"/><path class="cls-3" d="M157.82,213.38a2.79,2.79,0,0,1-.4,1.43,3,3,0,0,1-1.22,1.09,3.72,3.72,0,0,1-1.68.41,3.64,3.64,0,0,1-1.67-.4,3,3,0,0,1-1.22-1.09,2.87,2.87,0,0,1-.41-1.45,3.08,3.08,0,0,1,1.64-2.67,3.5,3.5,0,0,1,1.66-.42,3.62,3.62,0,0,1,1.68.43,3.06,3.06,0,0,1,1.62,2.67Zm-1.27,0a1.71,1.71,0,0,0-.44-1.13,2.17,2.17,0,0,0-3-.15,1.76,1.76,0,0,0-.58,1.29,1.49,1.49,0,0,0,.59,1.11,2.25,2.25,0,0,0,2.88,0A1.49,1.49,0,0,0,156.55,213.39Z" transform="translate(-27.64 -98.5)"/><path class="cls-3" d="M165.09,208v6.8h.22a1.07,1.07,0,0,1,.66.17.61.61,0,0,1,.19.47.59.59,0,0,1-.19.46,1,1,0,0,1-.66.17h-1.49v-.31a3.91,3.91,0,0,1-.92.39,3.51,3.51,0,0,1-1,.13,3.26,3.26,0,0,1-2.32-.83,2.74,2.74,0,0,1-.88-2.07,3,3,0,0,1,.92-2.21,3.09,3.09,0,0,1,2.25-.92,3.28,3.28,0,0,1,1,.15,4.6,4.6,0,0,1,.95.46V209.3h-.22a1,1,0,0,1-.66-.17.6.6,0,0,1-.19-.46.61.61,0,0,1,.19-.47,1,1,0,0,1,.66-.17Zm-1.27,5.42a1.8,1.8,0,0,0-.56-1.34,1.94,1.94,0,0,0-2.71,0,1.77,1.77,0,0,0-.55,1.32,1.45,1.45,0,0,0,.5,1.15,2.42,2.42,0,0,0,2.81,0A1.45,1.45,0,0,0,163.82,213.45Z" transform="translate(-27.64 -98.5)"/><path class="cls-3" d="M173,213.93h-5.24a1.71,1.71,0,0,0,.71.8,2.7,2.7,0,0,0,1.37.3,8,8,0,0,0,1.89-.3,3,3,0,0,1,.67-.13.57.57,0,0,1,.43.18.63.63,0,0,1,.18.46.52.52,0,0,1-.19.42,2.86,2.86,0,0,1-1.21.44,8.84,8.84,0,0,1-1.86.21,3.41,3.41,0,0,1-2.45-.87,2.8,2.8,0,0,1-.92-2.13,2.73,2.73,0,0,1,1-2.18,3.42,3.42,0,0,1,2.29-.85,3.51,3.51,0,0,1,1.43.28,3,3,0,0,1,1,.59,3.46,3.46,0,0,1,.74,1.14,2.65,2.65,0,0,1,.2,1.09Zm-1.41-1.28a2,2,0,0,0-.77-.82,2.48,2.48,0,0,0-2.25,0,2,2,0,0,0-.77.82Z" transform="translate(-27.64 -98.5)"/><path class="cls-3" d="M183.81,208v2.72a3,3,0,0,1,.81-.35,2.86,2.86,0,0,1,.82-.12,3,3,0,0,1,1.18.23,2,2,0,0,1,.86.7,2.11,2.11,0,0,1,.33,1.22v2.4a1.44,1.44,0,0,1,.64.09.62.62,0,0,1,.3.55.63.63,0,0,1-.19.46,1,1,0,0,1-.66.17h-1.46a1,1,0,0,1-.65-.17.65.65,0,0,1,.11-1,1.17,1.17,0,0,1,.63-.09v-2.31a.88.88,0,0,0-.22-.69,1.26,1.26,0,0,0-.87-.27,1.65,1.65,0,0,0-.75.16,3.94,3.94,0,0,0-.88.72v2.39a1.44,1.44,0,0,1,.64.09.62.62,0,0,1,.3.55.57.57,0,0,1-.2.46,1,1,0,0,1-.65.17h-1.45a1,1,0,0,1-.66-.17.62.62,0,0,1-.2-.47.6.6,0,0,1,.31-.54,1.17,1.17,0,0,1,.63-.09V209.3h-.22a1,1,0,0,1-.65-.17.64.64,0,0,1,0-.93,1,1,0,0,1,.65-.17Z" transform="translate(-27.64 -98.5)"/><path class="cls-3" d="M196,213.93h-5.24a1.65,1.65,0,0,0,.71.8,2.65,2.65,0,0,0,1.37.3,8.16,8.16,0,0,0,1.89-.3,2.84,2.84,0,0,1,.67-.13.58.58,0,0,1,.43.18.67.67,0,0,1,.17.46.54.54,0,0,1-.18.42,3,3,0,0,1-1.22.44,8.68,8.68,0,0,1-1.85.21,3.44,3.44,0,0,1-2.46-.87,2.79,2.79,0,0,1-.91-2.13,2.73,2.73,0,0,1,1-2.18,3.39,3.39,0,0,1,2.29-.85,3.54,3.54,0,0,1,1.43.28,3.18,3.18,0,0,1,1,.59,3.63,3.63,0,0,1,.74,1.14,2.83,2.83,0,0,1,.2,1.09Zm-1.42-1.28a2,2,0,0,0-.76-.82,2.25,2.25,0,0,0-1.13-.27,2.21,2.21,0,0,0-1.12.27,1.92,1.92,0,0,0-.77.82Z" transform="translate(-27.64 -98.5)"/><path class="cls-3" d="M200.17,210.45v.8a7.13,7.13,0,0,1,1.27-.78,2.45,2.45,0,0,1,.87-.19,2,2,0,0,1,1.21.46.87.87,0,0,1,.4.64.64.64,0,0,1-.19.46.62.62,0,0,1-.46.19.75.75,0,0,1-.5-.24.79.79,0,0,0-.47-.23,1.73,1.73,0,0,0-.8.34,13.44,13.44,0,0,0-1.33,1v1.93H202a1,1,0,0,1,.66.17.61.61,0,0,1,.19.47.59.59,0,0,1-.19.46,1,1,0,0,1-.66.17h-3.85a1,1,0,0,1-.66-.17.64.64,0,0,1,0-.93,1,1,0,0,1,.66-.17h.76v-3.1h-.47a1,1,0,0,1-.65-.18.6.6,0,0,1-.2-.47.59.59,0,0,1,.2-.45,1,1,0,0,1,.65-.18Z" transform="translate(-27.64 -98.5)"/><path class="cls-3" d="M211.3,213.93h-5.24a1.68,1.68,0,0,0,.7.8,2.72,2.72,0,0,0,1.38.3,8.16,8.16,0,0,0,1.89-.3,2.84,2.84,0,0,1,.67-.13.58.58,0,0,1,.43.18.67.67,0,0,1,.17.46.54.54,0,0,1-.18.42,3,3,0,0,1-1.22.44,8.7,8.7,0,0,1-1.86.21,3.43,3.43,0,0,1-2.45-.87,2.79,2.79,0,0,1-.91-2.13,2.73,2.73,0,0,1,1-2.18,3.39,3.39,0,0,1,2.29-.85,3.54,3.54,0,0,1,1.43.28,3.18,3.18,0,0,1,1,.59,3.81,3.81,0,0,1,.74,1.14,2.83,2.83,0,0,1,.2,1.09Zm-1.42-1.28a2,2,0,0,0-.76-.82,2.28,2.28,0,0,0-1.13-.27,2.21,2.21,0,0,0-1.12.27,1.92,1.92,0,0,0-.77.82Z" transform="translate(-27.64 -98.5)"/><path class="cls-3" d="M108.29,230a1.41,1.41,0,0,1-.3-.5,1.94,1.94,0,0,1-.09-.66v-2a.56.56,0,0,0-.09-.36.55.55,0,0,0-.36-.13.66.66,0,0,1-.43-.21.64.64,0,0,1-.17-.44.62.62,0,0,1,.19-.46.68.68,0,0,1,.48-.18,1.59,1.59,0,0,1,.81.22,1.88,1.88,0,0,1,.67.72,1.47,1.47,0,0,1,.18.74v2.13a.6.6,0,0,0,.09.38.62.62,0,0,0,.37.13.67.67,0,0,1,.44.2.64.64,0,0,1,.15.45.63.63,0,0,1-.15.44.67.67,0,0,1-.44.2c-.19,0-.31.06-.35.12a.57.57,0,0,0-.11.38v2.25a1.63,1.63,0,0,1-.5,1.19,1.55,1.55,0,0,1-1.15.51.7.7,0,0,1-.49-.19.62.62,0,0,1-.19-.46A.64.64,0,0,1,107,234a.63.63,0,0,1,.44-.2.49.49,0,0,0,.33-.12.52.52,0,0,0,.11-.38v-2a2.84,2.84,0,0,1,.08-.78A1.52,1.52,0,0,1,108.29,230Z" transform="translate(-27.64 -98.5)"/><path d="M241.54,120.66a1.7,1.7,0,0,1,.52-.49,1.15,1.15,0,0,1,.6-.16,1.19,1.19,0,0,1,.92.39,1.93,1.93,0,0,1,.35,1.3v2.17a2,2,0,0,1-.35,1.32,1.19,1.19,0,0,1-.92.39,1.17,1.17,0,0,1-.82-.29,2,2,0,0,1-.46-1.07,1.6,1.6,0,0,0-.35-.81,3.66,3.66,0,0,0-1.43-.9,5.36,5.36,0,0,0-1.83-.33,4.41,4.41,0,0,0-2.11.5A4.55,4.55,0,0,0,234,124.3a4.72,4.72,0,0,0-.74,2.66v1.66a4,4,0,0,0,1.34,3.07,5.24,5.24,0,0,0,3.72,1.24,6.48,6.48,0,0,0,2.4-.39,3.57,3.57,0,0,0,1.22-.88,3.06,3.06,0,0,1,.63-.52,1.07,1.07,0,0,1,.51-.12,1.24,1.24,0,0,1,.9.39,1.27,1.27,0,0,1,.38.91,1.75,1.75,0,0,1-.52,1.12,5.2,5.2,0,0,1-2,1.37,9.06,9.06,0,0,1-3.55.67,8.82,8.82,0,0,1-4.08-.93,6.55,6.55,0,0,1-2.51-2.36,6.4,6.4,0,0,1-1-3.52v-1.73a7.72,7.72,0,0,1,.93-3.72,6.52,6.52,0,0,1,2.57-2.66,7,7,0,0,1,3.49-.94,8,8,0,0,1,2.07.26A6.55,6.55,0,0,1,241.54,120.66Z" transform="translate(-27.64 -98.5)"/><path d="M254.12,119v13.6h3.07a1.92,1.92,0,0,1,1.31.36,1.21,1.21,0,0,1,.39.93,1.17,1.17,0,0,1-.39.91,1.92,1.92,0,0,1-1.31.36H248.5a1.92,1.92,0,0,1-1.31-.36,1.28,1.28,0,0,1,0-1.84,1.92,1.92,0,0,1,1.31-.36h3.07V121.5h-2.06a1.91,1.91,0,0,1-1.3-.35,1.18,1.18,0,0,1-.4-.93,1.17,1.17,0,0,1,.39-.91,1.92,1.92,0,0,1,1.31-.36Z" transform="translate(-27.64 -98.5)"/><path d="M274.79,129.66a5.48,5.48,0,0,1-.82,2.85,5.66,5.66,0,0,1-2.43,2.19,7.33,7.33,0,0,1-6.7,0,5.77,5.77,0,0,1-2.43-2.19,5.49,5.49,0,0,1-.84-2.89,6.15,6.15,0,0,1,3.28-5.33,6.92,6.92,0,0,1,6.68,0,5.85,5.85,0,0,1,2.44,2.33A6.11,6.11,0,0,1,274.79,129.66Zm-2.56,0a3.4,3.4,0,0,0-.88-2.27,4.31,4.31,0,0,0-6.07-.29,3.46,3.46,0,0,0-1.15,2.57,3,3,0,0,0,1.17,2.24,4.51,4.51,0,0,0,5.76,0A3,3,0,0,0,272.23,129.68Z" transform="translate(-27.64 -98.5)"/><path d="M288.89,123.8v8.75a1.68,1.68,0,0,1,1.2.37,1.21,1.21,0,0,1,.38.92,1.17,1.17,0,0,1-.39.91,1.93,1.93,0,0,1-1.32.36h-2.42v-.59a12.71,12.71,0,0,1-2.1.75,7.56,7.56,0,0,1-1.89.25,4.32,4.32,0,0,1-2.18-.53,3.93,3.93,0,0,1-1.46-1.46,3.44,3.44,0,0,1-.38-1.69v-5.49h-.44a2,2,0,0,1-1.31-.35,1.18,1.18,0,0,1-.4-.93,1.16,1.16,0,0,1,.4-.92,2,2,0,0,1,1.31-.35h3v7.6a1.61,1.61,0,0,0,.39,1.19,1.68,1.68,0,0,0,1.2.38,5.3,5.3,0,0,0,1.67-.31,12,12,0,0,0,2.2-1.1v-5.21h-.93a2,2,0,0,1-1.31-.35,1.21,1.21,0,0,1-.39-.93,1.19,1.19,0,0,1,.39-.92,2,2,0,0,1,1.31-.35Z" transform="translate(-27.64 -98.5)"/><path d="M301.53,126.79a5,5,0,0,0-1.3-.58,5.27,5.27,0,0,0-1.44-.2,4.86,4.86,0,0,0-2.35.49c-.26.14-.39.29-.39.46s.18.38.53.56a7.19,7.19,0,0,0,1.78.39,19.68,19.68,0,0,1,3.53.7,4.16,4.16,0,0,1,2,1.37,3,3,0,0,1,.71,1.91,2.79,2.79,0,0,1-1.21,2.3,7.2,7.2,0,0,1-4.49,1.33,10.91,10.91,0,0,1-2.05-.19,7.64,7.64,0,0,1-1.73-.57,1.28,1.28,0,0,1-.4.25,1.07,1.07,0,0,1-.43.09,1.21,1.21,0,0,1-.95-.4,1.92,1.92,0,0,1-.36-1.31v-.86a1.92,1.92,0,0,1,.36-1.31,1.15,1.15,0,0,1,.92-.4,1.2,1.2,0,0,1,.78.26,1.77,1.77,0,0,1,.48.88,4,4,0,0,0,1.41.75,6.4,6.4,0,0,0,1.89.26,5.68,5.68,0,0,0,2.73-.55c.31-.19.46-.38.46-.58s-.22-.6-.66-.82a10,10,0,0,0-2.73-.55c-2.05-.21-3.42-.63-4.11-1.24a2.88,2.88,0,0,1-1-2.24,2.75,2.75,0,0,1,1.16-2.28,6.4,6.4,0,0,1,4.11-1.25,8.6,8.6,0,0,1,1.7.17,6.65,6.65,0,0,1,1.56.52,2.5,2.5,0,0,1,.44-.27,1.18,1.18,0,0,1,.38-.08,1.15,1.15,0,0,1,.88.39,2,2,0,0,1,.34,1.31v.63a2.28,2.28,0,0,1-.19,1.13,1.27,1.27,0,0,1-1.09.57,1.23,1.23,0,0,1-.81-.28A1.34,1.34,0,0,1,301.53,126.79Z" transform="translate(-27.64 -98.5)"/><path d="M320.49,130.75H310a3.2,3.2,0,0,0,1.41,1.6,5.28,5.28,0,0,0,2.75.62,15.86,15.86,0,0,0,3.77-.62,6.8,6.8,0,0,1,1.35-.24,1.16,1.16,0,0,1,.86.36,1.25,1.25,0,0,1,.34.91,1.09,1.09,0,0,1-.37.84,5.93,5.93,0,0,1-2.43.88,17.37,17.37,0,0,1-3.71.42,6.87,6.87,0,0,1-4.9-1.73,5.63,5.63,0,0,1-1.84-4.26,5.45,5.45,0,0,1,2-4.38,6.83,6.83,0,0,1,4.58-1.69,7.17,7.17,0,0,1,2.85.55,6,6,0,0,1,1.94,1.18,7.55,7.55,0,0,1,1.48,2.28,5.52,5.52,0,0,1,.4,2.19Zm-2.82-2.56a4.05,4.05,0,0,0-1.54-1.63,4.86,4.86,0,0,0-4.49,0,4,4,0,0,0-1.55,1.63Z" transform="translate(-27.64 -98.5)"/><path d="M328.86,123.8v1.59a13.91,13.91,0,0,1,2.54-1.54,4.52,4.52,0,0,1,1.74-.39,3.88,3.88,0,0,1,2.41.92,1.71,1.71,0,0,1,.8,1.27,1.3,1.3,0,0,1-1.3,1.31,1.55,1.55,0,0,1-1-.47,1.48,1.48,0,0,0-.94-.48,3.57,3.57,0,0,0-1.6.68,26,26,0,0,0-2.66,2v3.84h3.64a2,2,0,0,1,1.32.36,1.21,1.21,0,0,1,.39.93,1.17,1.17,0,0,1-.39.91,2,2,0,0,1-1.32.36h-7.71a1.92,1.92,0,0,1-1.31-.36,1.26,1.26,0,0,1,0-1.84,1.92,1.92,0,0,1,1.31-.36h1.52v-6.2h-.92a2,2,0,0,1-1.32-.35,1.21,1.21,0,0,1-.39-.93,1.19,1.19,0,0,1,.39-.92,2,2,0,0,1,1.32-.35Z" transform="translate(-27.64 -98.5)"/><line class="cls-4" x1="241.65" y1="114.09" x2="270" y2="114.09"/></svg>