<svg id="图层_1" data-name="图层 1" xmlns="http://www.w3.org/2000/svg" viewBox="0 0 467.31 99.5"><defs><style>.cls-1{fill:gray;}.cls-2,.cls-4,.cls-5{fill:none;stroke-miterlimit:8;stroke-width:0.28px;}.cls-2{stroke:red;}.cls-3{fill:red;}.cls-4{stroke:#00b0f0;}.cls-5{stroke:#000;stroke-dasharray:5.68 5.68;}</style></defs><title>CSS基本语法结构</title><path d="M182.77,189.39v1.06a3.92,3.92,0,0,1,1.12-.95,2.92,2.92,0,0,1,1.4-.31,3.24,3.24,0,0,1,1.59.4,2.87,2.87,0,0,1,1.12,1.12,3,3,0,0,1,.4,1.5,2.89,2.89,0,0,1-.9,2.14,3,3,0,0,1-2.2.89,3,3,0,0,1-2.53-1.26v3.5h1.41a.42.42,0,0,1,.3.08.26.26,0,0,1,.09.21.29.29,0,0,1-.09.21.47.47,0,0,1-.3.08h-2.77a.47.47,0,0,1-.3-.08.29.29,0,0,1,0-.42.42.42,0,0,1,.3-.08h.78V190h-.78a.47.47,0,0,1-.3-.08.29.29,0,0,1-.09-.22.25.25,0,0,1,.09-.2.41.41,0,0,1,.3-.09Zm5,2.82a2.31,2.31,0,0,0-.73-1.72,2.44,2.44,0,0,0-1.78-.72,2.47,2.47,0,0,0-1.8.72,2.39,2.39,0,0,0,0,3.44,2.6,2.6,0,0,0,3.58,0A2.37,2.37,0,0,0,187.81,192.21Z" transform="translate(-91.98 -183.4)"/><path d="M201.64,191.94a1.77,1.77,0,0,1,.47.5,1.68,1.68,0,0,1,.16.74v2.48a.89.89,0,0,0,.23.65.83.83,0,0,0,.56.29.53.53,0,0,1,.29.08.29.29,0,0,1,.09.21.26.26,0,0,1-.09.21.41.41,0,0,1-.27.08,1.28,1.28,0,0,1-.91-.35,1.53,1.53,0,0,1-.49-1.16v-2.49a1,1,0,0,0-.23-.64.86.86,0,0,0-.58-.29.43.43,0,0,1-.27-.09.33.33,0,0,1-.08-.22.29.29,0,0,1,.08-.21.43.43,0,0,1,.27-.09.84.84,0,0,0,.58-.29,1,1,0,0,0,.23-.64v-2.49a1.54,1.54,0,0,1,.41-1.09,1.37,1.37,0,0,1,1-.43.36.36,0,0,1,.26.09.25.25,0,0,1,.09.2.26.26,0,0,1-.09.21.45.45,0,0,1-.29.09.83.83,0,0,0-.57.29.92.92,0,0,0-.22.64v2.49a1.55,1.55,0,0,1-.14.7A1.59,1.59,0,0,1,201.64,191.94Z" transform="translate(-91.98 -183.4)"/><path d="M199.78,208v3.86a3.1,3.1,0,0,1,2.54-1.37,2.92,2.92,0,0,1,2.18.92,3.1,3.1,0,0,1,.91,2.27,3.15,3.15,0,0,1-.92,2.29,2.92,2.92,0,0,1-2.17.95,3.06,3.06,0,0,1-2.54-1.38v1.15h-1.36a.41.41,0,0,1-.3-.09.25.25,0,0,1-.09-.2.29.29,0,0,1,.09-.22.47.47,0,0,1,.3-.07h.78v-7.52h-.78a.47.47,0,0,1-.3-.08.29.29,0,0,1-.09-.22.29.29,0,0,1,.09-.21.47.47,0,0,1,.3-.08Zm5.05,5.7a2.53,2.53,0,0,0-.76-1.86,2.41,2.41,0,0,0-3.53,0,2.69,2.69,0,0,0,0,3.73,2.43,2.43,0,0,0,3.53,0A2.53,2.53,0,0,0,204.83,213.66Z" transform="translate(-91.98 -183.4)"/><path d="M212.15,216.65v-.84a4.16,4.16,0,0,1-2.71,1.07,2.37,2.37,0,0,1-1.63-.53,1.71,1.71,0,0,1-.59-1.3,1.87,1.87,0,0,1,.78-1.48,3.5,3.5,0,0,1,2.26-.63,6.82,6.82,0,0,1,.87.06c.32,0,.65.09,1,.16v-.94a1,1,0,0,0-.44-.83,2.09,2.09,0,0,0-1.33-.36,7,7,0,0,0-1.91.4,1.06,1.06,0,0,1-.28.07.27.27,0,0,1-.19-.08.32.32,0,0,1-.08-.21A.25.25,0,0,1,208,211a2.29,2.29,0,0,1,.78-.28,6.63,6.63,0,0,1,1.64-.29,2.51,2.51,0,0,1,1.71.54,1.61,1.61,0,0,1,.62,1.23v3.85h.77a.49.49,0,0,1,.31.07.29.29,0,0,1,.09.22.25.25,0,0,1-.09.2.43.43,0,0,1-.31.09Zm0-2.9a7.06,7.06,0,0,0-.87-.17,7.33,7.33,0,0,0-1-.05,3.23,3.23,0,0,0-2,.54,1.2,1.2,0,0,0-.54,1,1.13,1.13,0,0,0,.41.88,1.8,1.8,0,0,0,1.21.36,3.29,3.29,0,0,0,1.4-.3,5.07,5.07,0,0,0,1.33-1Z" transform="translate(-91.98 -183.4)"/><path d="M221.41,211.24v-.19a.5.5,0,0,1,.08-.31.29.29,0,0,1,.21-.09.26.26,0,0,1,.21.09.44.44,0,0,1,.09.31v1.31a.54.54,0,0,1-.09.31.26.26,0,0,1-.21.09.3.3,0,0,1-.2-.08.43.43,0,0,1-.09-.27,1.33,1.33,0,0,0-.65-.93,2.67,2.67,0,0,0-1.63-.45,2.39,2.39,0,0,0-2,.81,2.82,2.82,0,0,0-.67,1.86,2.49,2.49,0,0,0,.74,1.86,2.59,2.59,0,0,0,1.91.73,4,4,0,0,0,1.38-.25,3.37,3.37,0,0,0,1.27-.8.45.45,0,0,1,.26-.14.27.27,0,0,1,.28.28c0,.2-.24.45-.7.75a4.43,4.43,0,0,1-2.51.75,3.13,3.13,0,0,1-2.31-.9,3.05,3.05,0,0,1-.91-2.27,3.16,3.16,0,0,1,3.26-3.26A3.28,3.28,0,0,1,221.41,211.24Z" transform="translate(-91.98 -183.4)"/><path d="M226.31,214.06v2.59H225a.41.41,0,0,1-.3-.09.25.25,0,0,1-.09-.2.29.29,0,0,1,.09-.22.47.47,0,0,1,.3-.07h.78v-7.52H225a.47.47,0,0,1-.3-.08.29.29,0,0,1-.09-.22.29.29,0,0,1,.09-.21.47.47,0,0,1,.3-.08h1.36v5.36l2.47-2.08h-.3a.47.47,0,0,1-.3-.08.29.29,0,0,1-.09-.21.26.26,0,0,1,.09-.21.41.41,0,0,1,.3-.09h1.86a.43.43,0,0,1,.31.09.26.26,0,0,1,.09.21.29.29,0,0,1-.09.21.48.48,0,0,1-.31.08h-.67l-2.27,1.9,2.87,2.93H231a.47.47,0,0,1,.3.07.29.29,0,0,1,.09.22.25.25,0,0,1-.09.2.41.41,0,0,1-.3.09h-1.89a.39.39,0,0,1-.29-.09.25.25,0,0,1-.09-.2.29.29,0,0,1,.09-.22.44.44,0,0,1,.29-.07h.41L227,213.5Z" transform="translate(-91.98 -183.4)"/><path d="M238,211.72v-1.07h1.36a.41.41,0,0,1,.3.09.26.26,0,0,1,.09.21.29.29,0,0,1-.09.21.47.47,0,0,1-.3.08h-.78v5.81a2.11,2.11,0,0,1-.25,1,2.33,2.33,0,0,1-.55.63,3.23,3.23,0,0,1-.71.46,2.18,2.18,0,0,1-.85.14h-1.65a.44.44,0,0,1-.29-.08.26.26,0,0,1-.09-.21.29.29,0,0,1,.09-.22.44.44,0,0,1,.29-.08h1.67a1.68,1.68,0,0,0,.93-.27,2,2,0,0,0,.68-.76A1.67,1.67,0,0,0,238,217v-1.74a2.87,2.87,0,0,1-2.41,1.28,2.77,2.77,0,0,1-2.07-.89,3.09,3.09,0,0,1,0-4.28,2.8,2.8,0,0,1,2.07-.88A2.86,2.86,0,0,1,238,211.72Zm0,1.75a2.39,2.39,0,0,0-.7-1.73,2.34,2.34,0,0,0-3.36,0,2.49,2.49,0,0,0,0,3.46,2.34,2.34,0,0,0,3.36,0A2.39,2.39,0,0,0,238,213.47Z" transform="translate(-91.98 -183.4)"/><path d="M243.8,210.65v1.47a10.58,10.58,0,0,1,1.7-1.32,2.38,2.38,0,0,1,1-.29,1.56,1.56,0,0,1,1,.35c.3.23.45.41.45.53a.29.29,0,0,1-.09.22.33.33,0,0,1-.22.08l-.12,0a1.43,1.43,0,0,1-.18-.16,1.74,1.74,0,0,0-.42-.33.79.79,0,0,0-.35-.09,2,2,0,0,0-.92.3,14.7,14.7,0,0,0-1.86,1.49v3.19h2.58a.47.47,0,0,1,.3.07.29.29,0,0,1,.09.22.25.25,0,0,1-.09.2.41.41,0,0,1-.3.09h-4.56a.47.47,0,0,1-.3-.08.27.27,0,0,1-.09-.21.23.23,0,0,1,.09-.19c0-.06.15-.08.3-.08h1.4v-4.85h-1.07a.47.47,0,0,1-.3-.08.29.29,0,0,1-.09-.22.25.25,0,0,1,.09-.2.41.41,0,0,1,.3-.09Z" transform="translate(-91.98 -183.4)"/><path d="M256.25,213.66a3,3,0,0,1-.95,2.27,3.26,3.26,0,0,1-4.6,0,3.21,3.21,0,0,1,0-4.54,3.28,3.28,0,0,1,4.6,0A3,3,0,0,1,256.25,213.66Zm-.58,0a2.52,2.52,0,0,0-.78-1.86A2.6,2.6,0,0,0,253,211a2.54,2.54,0,0,0-1.88.78,2.5,2.5,0,0,0-.78,1.85,2.65,2.65,0,0,0,2.66,2.63,2.56,2.56,0,0,0,1.89-.77A2.51,2.51,0,0,0,255.67,213.66Z" transform="translate(-91.98 -183.4)"/><path d="M263.5,216.65v-.85a3.76,3.76,0,0,1-2.57,1.08,1.72,1.72,0,0,1-1.3-.47,2,2,0,0,1-.57-1.42v-3.75h-.79a.46.46,0,0,1-.29-.08.29.29,0,0,1-.09-.22.25.25,0,0,1,.09-.2.4.4,0,0,1,.29-.09h1.37V215a1.3,1.3,0,0,0,.36.94,1.22,1.22,0,0,0,.9.36,3.48,3.48,0,0,0,2.6-1.3v-3.75h-1.07a.47.47,0,0,1-.3-.08.29.29,0,0,1-.09-.22.25.25,0,0,1,.09-.2.41.41,0,0,1,.3-.09h1.65v5.42h.49a.47.47,0,0,1,.3.07.29.29,0,0,1,.09.22.25.25,0,0,1-.09.2.41.41,0,0,1-.3.09Z" transform="translate(-91.98 -183.4)"/><path d="M268.14,210.65v.88a4.13,4.13,0,0,1,1.1-.85,2.43,2.43,0,0,1,1.1-.23,2.61,2.61,0,0,1,1.22.28,2.08,2.08,0,0,1,.7.69,1.77,1.77,0,0,1,.31,1v3.67h.49a.47.47,0,0,1,.3.07.29.29,0,0,1,.09.22.25.25,0,0,1-.09.2.41.41,0,0,1-.3.09h-1.55a.43.43,0,0,1-.31-.09.25.25,0,0,1-.09-.2.29.29,0,0,1,.09-.22.49.49,0,0,1,.31-.07H272V212.5a1.37,1.37,0,0,0-.45-1,1.69,1.69,0,0,0-1.2-.43,2,2,0,0,0-1,.24,5.31,5.31,0,0,0-1.2,1.15v3.65h.65a.47.47,0,0,1,.3.07.29.29,0,0,1,.09.22.25.25,0,0,1-.09.2.41.41,0,0,1-.3.09H266.9a.41.41,0,0,1-.3-.09.25.25,0,0,1-.09-.2.29.29,0,0,1,.09-.22.47.47,0,0,1,.3-.07h.66v-4.83h-.5a.46.46,0,0,1-.29-.08.29.29,0,0,1-.09-.22.25.25,0,0,1,.09-.2.4.4,0,0,1,.29-.09Z" transform="translate(-91.98 -183.4)"/><path d="M281.37,208v8.11h.77a.49.49,0,0,1,.31.07.29.29,0,0,1,.09.22.25.25,0,0,1-.09.2.43.43,0,0,1-.31.09h-1.36v-1.16a3.07,3.07,0,0,1-2.57,1.39,3,3,0,0,1-2.65-1.62,3.26,3.26,0,0,1,0-3.2,3,3,0,0,1,1.14-1.19,3,3,0,0,1,1.52-.42,3.11,3.11,0,0,1,2.56,1.38v-3.28H280a.48.48,0,0,1-.31-.08.29.29,0,0,1-.09-.22.29.29,0,0,1,.09-.21A.48.48,0,0,1,280,208Zm-.59,5.7a2.54,2.54,0,0,0-.75-1.86,2.44,2.44,0,0,0-3.56,0,2.69,2.69,0,0,0,0,3.73,2.46,2.46,0,0,0,3.56,0A2.56,2.56,0,0,0,280.78,213.66Z" transform="translate(-91.98 -183.4)"/><path d="M290,212.22v.84h-5.93v-.84Z" transform="translate(-91.98 -183.4)"/><path d="M298,211.24v-.19a.44.44,0,0,1,.08-.31.29.29,0,0,1,.42,0,.44.44,0,0,1,.08.31v1.31a.48.48,0,0,1-.08.31.27.27,0,0,1-.21.09.28.28,0,0,1-.2-.08.43.43,0,0,1-.09-.27,1.36,1.36,0,0,0-.65-.93,2.67,2.67,0,0,0-1.63-.45,2.42,2.42,0,0,0-2,.81,2.87,2.87,0,0,0-.67,1.86,2.52,2.52,0,0,0,.74,1.86,2.62,2.62,0,0,0,1.92.73,4,4,0,0,0,1.38-.25,3.37,3.37,0,0,0,1.27-.8.42.42,0,0,1,.26-.14.27.27,0,0,1,.27.28q0,.3-.69.75a4.47,4.47,0,0,1-2.52.75,3.12,3.12,0,0,1-2.3-.9,3.05,3.05,0,0,1-.91-2.27,3.16,3.16,0,0,1,3.25-3.26A3.29,3.29,0,0,1,298,211.24Z" transform="translate(-91.98 -183.4)"/><path d="M307.29,213.66a3,3,0,0,1-1,2.27,3.25,3.25,0,0,1-4.59,0,3.19,3.19,0,0,1,0-4.54,3.27,3.27,0,0,1,4.59,0A3,3,0,0,1,307.29,213.66Zm-.59,0a2.52,2.52,0,0,0-.78-1.86A2.6,2.6,0,0,0,304,211a2.55,2.55,0,0,0-1.88.78,2.5,2.5,0,0,0-.78,1.85,2.65,2.65,0,0,0,2.66,2.63,2.56,2.56,0,0,0,1.89-.77A2.51,2.51,0,0,0,306.7,213.66Z" transform="translate(-91.98 -183.4)"/><path d="M312.84,208v8.11h2.28a.47.47,0,0,1,.3.07.29.29,0,0,1,.09.22.25.25,0,0,1-.09.2.41.41,0,0,1-.3.09H310a.41.41,0,0,1-.3-.09.25.25,0,0,1-.09-.2.29.29,0,0,1,.09-.22.47.47,0,0,1,.3-.07h2.28v-7.52h-1.67a.47.47,0,0,1-.3-.08.29.29,0,0,1-.09-.22.29.29,0,0,1,.09-.21.45.45,0,0,1,.3-.08Z" transform="translate(-91.98 -183.4)"/><path d="M324.3,213.66a3,3,0,0,1-1,2.27,3.25,3.25,0,0,1-4.59,0,3.19,3.19,0,0,1,0-4.54,3.27,3.27,0,0,1,4.59,0A3,3,0,0,1,324.3,213.66Zm-.59,0a2.52,2.52,0,0,0-.78-1.86A2.6,2.6,0,0,0,321,211a2.57,2.57,0,0,0-1.88.78,2.5,2.5,0,0,0-.78,1.85,2.65,2.65,0,0,0,2.66,2.63,2.56,2.56,0,0,0,1.89-.77A2.51,2.51,0,0,0,323.71,213.66Z" transform="translate(-91.98 -183.4)"/><path d="M328.86,210.65v1.47a9.75,9.75,0,0,1,1.7-1.32,2.31,2.31,0,0,1,1-.29,1.54,1.54,0,0,1,1,.35c.3.23.45.41.45.53a.29.29,0,0,1-.09.22.3.3,0,0,1-.21.08l-.12,0a1,1,0,0,1-.18-.16,1.74,1.74,0,0,0-.42-.33.8.8,0,0,0-.36-.09,1.93,1.93,0,0,0-.91.3,14,14,0,0,0-1.86,1.49v3.19h2.57a.51.51,0,0,1,.31.07.29.29,0,0,1,.09.22.25.25,0,0,1-.09.2.44.44,0,0,1-.31.09h-4.56a.47.47,0,0,1-.3-.08.27.27,0,0,1-.09-.21.23.23,0,0,1,.09-.19.42.42,0,0,1,.3-.08h1.41v-4.85H327.2a.44.44,0,0,1-.29-.08.29.29,0,0,1-.09-.22.24.24,0,0,1,.08-.2.41.41,0,0,1,.3-.09Z" transform="translate(-91.98 -183.4)"/><path d="M337.94,210.65h.25a1,1,0,0,1,.94.94.94.94,0,0,1-.94.95h-.25a1,1,0,0,1-.67-.28.91.91,0,0,1-.27-.66.94.94,0,0,1,.94-.95Zm0,4.33h.25a.91.91,0,0,1,.66.27.92.92,0,0,1,.28.66.91.91,0,0,1-.28.67.93.93,0,0,1-.66.27h-.25a.94.94,0,0,1-.67-.27.9.9,0,0,1-.27-.66.88.88,0,0,1,.28-.67A.9.9,0,0,1,337.94,215Z" transform="translate(-91.98 -183.4)"/><path d="M354.37,210.65v1.47a10.58,10.58,0,0,1,1.7-1.32,2.35,2.35,0,0,1,1-.29,1.56,1.56,0,0,1,1,.35c.3.23.44.41.44.53a.29.29,0,0,1-.08.22.33.33,0,0,1-.22.08l-.12,0a1.43,1.43,0,0,1-.18-.16,1.74,1.74,0,0,0-.42-.33.79.79,0,0,0-.35-.09,2,2,0,0,0-.92.3,14,14,0,0,0-1.86,1.49v3.19H357a.47.47,0,0,1,.3.07.29.29,0,0,1,.09.22.25.25,0,0,1-.09.2.41.41,0,0,1-.3.09h-4.56a.47.47,0,0,1-.3-.08.27.27,0,0,1-.09-.21.26.26,0,0,1,.08-.19.43.43,0,0,1,.31-.08h1.4v-4.85h-1.07a.47.47,0,0,1-.3-.08.29.29,0,0,1-.09-.22.25.25,0,0,1,.09-.2.41.41,0,0,1,.3-.09Z" transform="translate(-91.98 -183.4)"/><path d="M366.72,213.79h-5.93a2.87,2.87,0,0,0,.95,1.82,2.92,2.92,0,0,0,2,.68,4.79,4.79,0,0,0,1.36-.21,3.36,3.36,0,0,0,1.17-.57.36.36,0,0,1,.23-.1.29.29,0,0,1,.19.08.32.32,0,0,1,.08.21.31.31,0,0,1-.11.23,3.06,3.06,0,0,1-1.18.64,5.14,5.14,0,0,1-1.74.31,3.41,3.41,0,0,1-2.49-1,3.2,3.2,0,0,1-1-2.37,2.94,2.94,0,0,1,.93-2.18,3.24,3.24,0,0,1,2.33-.9,3.14,3.14,0,0,1,2.34.93A3.2,3.2,0,0,1,366.72,213.79Zm-.59-.59a2.55,2.55,0,0,0-.91-1.56,2.85,2.85,0,0,0-3.51,0,2.59,2.59,0,0,0-.91,1.57Z" transform="translate(-91.98 -183.4)"/><path d="M374.93,208v8.11h.77a.46.46,0,0,1,.3.07.27.27,0,0,1,.1.22.23.23,0,0,1-.1.2.4.4,0,0,1-.3.09h-1.36v-1.16a3.08,3.08,0,0,1-2.57,1.39,3,3,0,0,1-2.65-1.62,3.26,3.26,0,0,1,0-3.2,3,3,0,0,1,2.66-1.61,3.11,3.11,0,0,1,2.56,1.38v-3.28h-.78a.47.47,0,0,1-.3-.08.29.29,0,0,1-.09-.22.29.29,0,0,1,.09-.21.47.47,0,0,1,.3-.08Zm-.59,5.7a2.54,2.54,0,0,0-.75-1.86,2.44,2.44,0,0,0-3.56,0,2.69,2.69,0,0,0,0,3.73,2.46,2.46,0,0,0,3.56,0A2.56,2.56,0,0,0,374.34,213.66Z" transform="translate(-91.98 -183.4)"/><path d="M379.44,214.56h1.83l-2,3.21a1.25,1.25,0,0,1-.23.3.34.34,0,0,1-.2.06.39.39,0,0,1-.28-.11.33.33,0,0,1-.11-.25.68.68,0,0,1,0-.21Zm1-3.91h.25a.91.91,0,0,1,.66.28.92.92,0,0,1,.28.66.94.94,0,0,1-.94.95h-.25a1,1,0,0,1-.67-.28.91.91,0,0,1-.27-.66.9.9,0,0,1,.28-.68A.93.93,0,0,1,380.46,210.65Z" transform="translate(-91.98 -183.4)"/><path d="M185.3,234.46a1.53,1.53,0,0,1-.47-.5,1.64,1.64,0,0,1-.16-.73v-2.49a1,1,0,0,0-.22-.65.86.86,0,0,0-.57-.28.53.53,0,0,1-.29-.08.31.31,0,0,1-.09-.22.29.29,0,0,1,.09-.21.4.4,0,0,1,.26-.08,1.26,1.26,0,0,1,.91.35,1.57,1.57,0,0,1,.5,1.17v2.49a.9.9,0,0,0,.23.64.86.86,0,0,0,.58.29.43.43,0,0,1,.27.09.32.32,0,0,1,0,.42.38.38,0,0,1-.27.1.88.88,0,0,0-.59.29.94.94,0,0,0-.22.64v2.49a1.48,1.48,0,0,1-.42,1.08,1.34,1.34,0,0,1-1,.44.36.36,0,0,1-.26-.09.26.26,0,0,1-.09-.21.29.29,0,0,1,.09-.21.5.5,0,0,1,.29-.08.85.85,0,0,0,.57-.3.92.92,0,0,0,.22-.64V235.7a1.6,1.6,0,0,1,.14-.71A1.82,1.82,0,0,1,185.3,234.46Z" transform="translate(-91.98 -183.4)"/><path class="cls-1" d="M109,191.52v.68H104.8v5.5c0,.48.13.57.75.57h2.17c.64,0,.74-.38.78-2.64a3.06,3.06,0,0,0,.65.33c-.08,2.35-.28,3-1.4,3h-2.24c-1.09,0-1.39-.25-1.39-1.24v-5.5h-3c-.27,3.14-1,5.69-4.2,7a2,2,0,0,0-.44-.51c3.08-1.16,3.67-3.61,3.91-6.45H96.56v-.68Zm-1.15-4v.67h-10v-.67Z" transform="translate(-91.98 -183.4)"/><path class="cls-1" d="M114.83,196.58a15,15,0,0,1-3.64,2.4,4.23,4.23,0,0,0-.54-.47,13.26,13.26,0,0,0,3.56-2.18Zm-2.34-3.34a3.44,3.44,0,0,0,.93-.29,15.53,15.53,0,0,0,2.53-1.43h-5.23v-.59h5.86v-1.14h-4.31v-.58h4.31v-1.12h-5.12v-.58h5.12v-1.22h.69v1.22h5.27v.58h-5.27v1.12h4.38v.58h-4.38v1.14h5.93v.59h-6.85l.35.26a15,15,0,0,1-2.53,1.39l3.48-.19c.58-.28,1.15-.58,1.69-.89l.5.48a35.57,35.57,0,0,1-6.18,2.68l6.84-.35a11.22,11.22,0,0,0-1.16-.78l.51-.37a15,15,0,0,1,2.85,2.18l-.52.43a8.28,8.28,0,0,0-1-1l-3.71.21v2.67c0,.42-.08.62-.48.74a9,9,0,0,1-2.07.12,2.48,2.48,0,0,0-.27-.66c.95,0,1.64,0,1.87,0s.27,0,.27-.22v-2.61c-4.42.25-4.92.29-5.24.41a6.17,6.17,0,0,0-.2-.68,8.27,8.27,0,0,0,1.88-.5c.53-.17,1.77-.65,3.19-1.3a20.61,20.61,0,0,0-3.7.31A5.24,5.24,0,0,0,112.49,193.24Zm7,3.12a21,21,0,0,1,3.53,2.09l-.53.46a20.38,20.38,0,0,0-3.51-2.16Z" transform="translate(-91.98 -183.4)"/><path class="cls-1" d="M127.4,196.94c.41,0,.73.37,1.41.78a7.21,7.21,0,0,0,3.57.59c1.73,0,3.86-.08,5.29-.2a2.39,2.39,0,0,0-.22.73c-1.13.07-3.7.14-5.07.14a7.32,7.32,0,0,1-3.76-.68c-.55-.33-1-.74-1.27-.74-.54,0-1.29.67-2.11,1.55l-.47-.59a6.85,6.85,0,0,1,2-1.44v-4.69H124.9v-.66h2.5Zm-1.87-10.11a11.45,11.45,0,0,1,2.3,2.34l-.55.41A12.08,12.08,0,0,0,125,187.2Zm5.67,0a9.55,9.55,0,0,1-.54,1.53h2v-2h.69v2h3.46V189h-3.46v2.33h4.06V192h-3v3.75c0,.33.07.37.49.37h1.46c.4,0,.47-.2.5-1.8a1.58,1.58,0,0,0,.64.3c-.09,1.74-.27,2.17-1.07,2.17h-1.58c-.9,0-1.12-.22-1.12-1V192H132c-.26,2.41-1,4.05-3.37,4.94a2.27,2.27,0,0,0-.44-.54c2.27-.76,2.89-2.26,3.12-4.4h-2.67v-.64h4.09V189h-2.3a10.1,10.1,0,0,1-.93,1.49,3.15,3.15,0,0,0-.6-.35,9.08,9.08,0,0,0,1.7-3.42Z" transform="translate(-91.98 -183.4)"/><path class="cls-1" d="M141.58,186.32v3h1.78v.65h-1.78V193l1.61-.55.12.65-1.73.6v4.49c0,.45-.12.67-.43.78a5.16,5.16,0,0,1-1.7.13,2.84,2.84,0,0,0-.21-.67,13.05,13.05,0,0,0,1.4,0c.19,0,.27,0,.27-.24V194l-1.9.65-.23-.67,2.13-.69v-3.32h-2v-.65h2v-3Zm8.81.86.15,0,.42.26a9,9,0,0,1-2.85,3.16,11.82,11.82,0,0,0,3.79,1.52,2.47,2.47,0,0,0-.44.58,11.92,11.92,0,0,1-3.9-1.75,14.44,14.44,0,0,1-3.93,1.75,2.36,2.36,0,0,0-.38-.57,14.75,14.75,0,0,0,3.77-1.56,9.06,9.06,0,0,1-2.31-2.71h-1v-.64Zm-2.55,5.15v1.33h2.78v.65h-2.78v1.76h3.87v.64h-3.87v2.52h-.69v-2.52h-3.74v-.64h3.74v-1.76h-3v-.65h3v-1.33Zm-2.46-4.51a8.14,8.14,0,0,0,2.18,2.36,8.52,8.52,0,0,0,2.42-2.36Z" transform="translate(-91.98 -183.4)"/><path class="cls-1" d="M161.51,190.84a9.08,9.08,0,0,1,2.07,1l-.33.4h2.51v.64h-4.21a11.11,11.11,0,0,0,4.46,2.24,2,2,0,0,0-.45.55l-.88-.3v3.7H164v-.38h-3v.45h-.64v-4.31h3.11a10.14,10.14,0,0,1-2.72-1.95h-2.81a11.39,11.39,0,0,1-2.48,1.95h3v4.24h-.67v-.38H154.9v.45h-.65v-3.68c-.3.15-.63.28-.95.41a2,2,0,0,0-.41-.51,12.1,12.1,0,0,0,4.12-2.48h-3.85v-.64h4.48a7.64,7.64,0,0,0,1.12-1.7l.72.14a8.78,8.78,0,0,1-1,1.56h4.65a8.53,8.53,0,0,0-2-1ZM158.44,187v3.67h-4.19V187Zm-3.55,3h2.89V187.6h-2.89Zm2.87,8.09v-2.6H154.9v2.6ZM164.68,187v3.67h-4.36V187ZM161,190H164V187.6H161Zm3.05,8.09v-2.6h-3v2.6Z" transform="translate(-91.98 -183.4)"/><path class="cls-1" d="M235,255v2.73h-9.67v1.39c0,2.37-.18,5.7-1.64,8a2.92,2.92,0,0,0-.6-.34c1.44-2.27,1.56-5.38,1.56-7.67V255Zm-9.67,2.14h9v-1.55h-9Zm7.12,7a21.15,21.15,0,0,1,1.59,2l-.47.24c-.14-.21-.33-.48-.55-.78-2.06.11-4.11.21-5.56.27l0-.6,2.83-.08v-1.32h-3.55v3.4H226V263.3h4.21v-1h-3.63v-2.27h3.63v-.94c-1.27.08-2.59.13-3.8.13a1.43,1.43,0,0,0-.17-.49,62.69,62.69,0,0,0,7.57-.54l.47.48c-.92.15-2.12.28-3.43.38v1h3.73v2.27h-3.73v1h4.34v3.17c0,.37-.07.54-.38.64a7.83,7.83,0,0,1-1.85.1,2.61,2.61,0,0,0-.21-.54c.78,0,1.36,0,1.56,0s.23-.05.23-.21v-2.62h-3.69v1.29l1.73-.07-.61-.73Zm-5.17-2.38h3v-1.21h-3Zm3.61,0h3.08v-1.21h-3.08Z" transform="translate(-91.98 -183.4)"/><path class="cls-1" d="M238.52,257.12a14.47,14.47,0,0,1-.75,3.71l-.58-.2A13.61,13.61,0,0,0,238,257Zm1.49-2.78v12.85h-.68V254.34Zm.87,2.25A12.69,12.69,0,0,1,242,259l-.55.3a12.66,12.66,0,0,0-1-2.49Zm4.73,9.44v-4h-3.16v-.65h3.16v-3.32h-2.37a11.91,11.91,0,0,1-1.1,2.37c-.13-.08-.44-.24-.63-.33a14,14,0,0,0,1.87-5.13l.68.12c-.17.79-.36,1.57-.59,2.31h2.14v-3.05h.71v3.05h3.41v.66h-3.41v3.32h3.1v.65h-3.1v4H250v.65h-8.63V266Z" transform="translate(-91.98 -183.4)"/><path class="cls-1" d="M383.77,255v2.73H374.1v1.39c0,2.37-.18,5.7-1.64,8a2.92,2.92,0,0,0-.6-.34c1.43-2.27,1.56-5.38,1.56-7.67V255Zm-9.67,2.14h9v-1.55h-9Zm7.12,7a21.15,21.15,0,0,1,1.59,2l-.47.24c-.14-.22-.33-.48-.55-.78-2.06.11-4.11.21-5.56.27l0-.6,2.83-.08v-1.32h-3.56v3.4h-.65V263.3H379v-1h-3.63v-2.27H379v-.94c-1.27.07-2.59.13-3.8.13a1.43,1.43,0,0,0-.17-.49,62.69,62.69,0,0,0,7.57-.54l.47.48c-.92.15-2.13.28-3.43.38v1h3.73v2.27h-3.73v1H384v3.17c0,.37-.07.54-.38.64a7.83,7.83,0,0,1-1.85.1,3.33,3.33,0,0,0-.21-.54c.78,0,1.36,0,1.56,0s.23-.05.23-.21v-2.62h-3.69v1.29l1.73-.07-.61-.73ZM376,261.78h3v-1.21h-3Zm3.62,0h3.08v-1.21h-3.08Z" transform="translate(-91.98 -183.4)"/><path class="cls-1" d="M387.34,257.12a14.47,14.47,0,0,1-.75,3.71l-.58-.2a13.6,13.6,0,0,0,.76-3.61Zm1.49-2.78v12.85h-.68V254.34Zm.86,2.25a12.18,12.18,0,0,1,1.08,2.42l-.55.3a12.66,12.66,0,0,0-1-2.49Zm4.74,9.44v-4h-3.16v-.65h3.16v-3.32h-2.37a11.91,11.91,0,0,1-1.1,2.37c-.13-.08-.44-.24-.63-.33A14.17,14.17,0,0,0,392.2,255l.68.12c-.17.79-.37,1.57-.59,2.31h2.14v-3.05h.71v3.05h3.41v.66h-3.41v3.32h3.1v.65h-3.1v4h3.7v.65H390.2V266Z" transform="translate(-91.98 -183.4)"/><path class="cls-1" d="M404.29,254.54a23.19,23.19,0,0,1-1.53,3.31v9.39h-.65v-8.31a15.29,15.29,0,0,1-1.45,1.9,3.49,3.49,0,0,0-.44-.64,16.73,16.73,0,0,0,3.44-5.84Zm4.74-.13-.3,1.49h4v.62h-4.1c-.13.57-.25,1.09-.38,1.53h3.59v8.05h1.39v.63h-9.49v-.63h1.43v-8.05h2.44c.12-.42.24-1,.36-1.53h-3.63v-.62h3.74c.1-.56.18-1.11.24-1.56Zm2.14,5.68v-1.44h-5.38v1.44Zm-5.38,2h5.38v-1.46h-5.38Zm0,2h5.38v-1.48h-5.38Zm5.38,2v-1.39h-5.38v1.39Z" transform="translate(-91.98 -183.4)"/><line class="cls-2" x1="74.55" y1="9.35" x2="84.66" y2="9.35"/><polygon class="cls-3" points="83.83 12.18 88.72 9.35 83.83 6.53 83.83 12.18"/><path class="cls-1" d="M99.13,221v2.79h1.6v.65h-1.6v.64c.32.44,1.37,2.16,1.63,2.57l-.46.55c-.19-.47-.76-1.49-1.17-2.21v7.87h-.65v-7.56a16.5,16.5,0,0,1-1.88,4.5,1.94,1.94,0,0,0-.42-.61,17.93,17.93,0,0,0,2.24-5.75H96.55v-.65h1.93V221Zm9.1.26c-.43.82-1,1.78-1.45,2.52h1.89v.64h-3.38v2.29h2.9v.65h-2.9v2.36H109v.66h-3.69v3.51h-.69v-3.51h-3.9v-.66h3.9v-2.36h-2.85v-.65h2.85v-2.29h-3.29v-.64h4.74a19.32,19.32,0,0,0,1.5-2.79Zm-5.66-.17a11.06,11.06,0,0,1,1.32,2.23l-.62.3a12,12,0,0,0-1.28-2.29Z" transform="translate(-91.98 -183.4)"/><path class="cls-1" d="M118.76,221.1c0,1,0,1.86.07,2.72h4.39v.67h-4.35c.39,5.22,1.63,8.76,3.26,8.76.46,0,.63-.79.71-2.76a2.1,2.1,0,0,0,.63.36c-.15,2.34-.44,3.11-1.38,3.11-2.24,0-3.52-4-3.91-9.47h-7.53v-.67h7.49c-.06-.88-.09-1.78-.1-2.72Zm-4.85,11v-4.54h-2.78v-.68h6.34v.68h-2.88V232l3.28-.75,0,.62c-2.45.6-5.11,1.23-6.91,1.66l-.26-.67Zm6.42-10.93A13.55,13.55,0,0,1,122.5,223l-.48.45a13.49,13.49,0,0,0-2.16-1.85Z" transform="translate(-91.98 -183.4)"/><path class="cls-1" d="M136.46,222.06V232.8c0,.56-.15.82-.56.93a12.43,12.43,0,0,1-2.6.11,3.81,3.81,0,0,0-.25-.68c1.1.05,2.08,0,2.36,0s.39-.1.39-.37v-3.35h-4.31v4.36h-.7v-4.36h-3.94a8.17,8.17,0,0,1-1.79,4.53,2,2,0,0,0-.52-.47c1.59-1.79,1.74-4.3,1.74-6.3v-5.16Zm-9.5,5.16c0,.5,0,1,0,1.58h3.88v-2.75H127Zm0-1.82h3.83v-2.67H127Zm4.53-2.67v2.67h4.31v-2.67Zm0,3.32v2.75h4.31v-2.75Z" transform="translate(-91.98 -183.4)"/><path class="cls-1" d="M145.7,221.06a29.65,29.65,0,0,1-.27,4.21h6.07V226h-5.58c1,3.34,3,6.12,5.76,7.33a3.07,3.07,0,0,0-.51.62c-2.86-1.36-4.82-4.19-5.91-7.74a10.14,10.14,0,0,1-5.89,7.74,3,3,0,0,0-.53-.54,9.6,9.6,0,0,0,5.74-7.41h-5.45v-.68h5.58a27.3,27.3,0,0,0,.27-4.21Z" transform="translate(-91.98 -183.4)"/><path class="cls-1" d="M155.64,221v3h1.77v.67h-1.77v3.26l1.85-.57.1.63-2,.62v4.34c0,.49-.14.69-.44.82a7.2,7.2,0,0,1-1.79.11,2.33,2.33,0,0,0-.24-.63h1.55c.18,0,.25-.08.25-.29v-4.14l-1.84.58-.23-.68,2.07-.59v-3.46h-1.9V224H155v-3Zm5.67,7.7V226h-3.5v-.65h3.5V222.6c-1,.19-2.11.33-3.11.43a3,3,0,0,0-.21-.55,40,40,0,0,0,6.71-1.32l.52.54a26,26,0,0,1-3.23.79v2.88h3.9V226H162v2.72h3v5.12h-.69v-.55H159v.61h-.67v-5.18Zm3,3.93v-3.29H159v3.29Z" transform="translate(-91.98 -183.4)"/><path class="cls-1" d="M108.82,240.9v.64h-8.36c-.18.62-.42,1.3-.64,1.88h7.27a2.34,2.34,0,0,1,0,.36c-.38,2.49-.75,3.54-1.26,4a1.55,1.55,0,0,1-1.05.29c-.44,0-1.39,0-2.37-.07a1.37,1.37,0,0,0-.24-.66c1,.11,2.06.12,2.43.12s.52,0,.68-.14c.42-.31.72-1.23,1.05-3.26h-7.5c.3-.67.65-1.66.93-2.51H96.65v-.64Zm-1.71-5.06v3.54h-8.7v-3.54Zm-8,2.92h7.31v-2.28H99.09Z" transform="translate(-91.98 -183.4)"/><path class="cls-1" d="M114.93,235.33a15.86,15.86,0,0,1-1,1.83h8.12v.38c-.17,4.89-.33,6.52-.72,7a1.08,1.08,0,0,1-.84.38,12.14,12.14,0,0,1-1.66,0,1.57,1.57,0,0,0-.18-.65c.69,0,1.34.06,1.59,0a.5.5,0,0,0,.48-.15c.31-.39.48-1.93.62-6.32h-7.85a13.67,13.67,0,0,1-2.52,2.79,5.85,5.85,0,0,0-.59-.48,12.63,12.63,0,0,0,3.83-5Zm3.4,4.22v4h-5v2.55c0,.78.29,1,1.83,1h6c1.23,0,1.44-.35,1.57-1.92a1.82,1.82,0,0,0,.68.28c-.18,1.79-.51,2.3-2.28,2.3h-5.83c-2,0-2.61-.3-2.61-1.66v-6.57Zm-5,3.38h4.33v-2.74h-4.33Z" transform="translate(-91.98 -183.4)"/><path class="cls-1" d="M127.5,247.55a1,1,0,0,0,.43-.91v-1.15a26.26,26.26,0,0,1-2.88.95,4.29,4.29,0,0,0-.45-.52c2.63-.68,5.11-1.67,6.38-2.85l.66.27-.17.16a6.21,6.21,0,0,0,1.63,1.82,14.15,14.15,0,0,0,2-1.33l.54.37a16.63,16.63,0,0,1-2.14,1.29,10.88,10.88,0,0,0,4.07,1.6,1.79,1.79,0,0,0-.42.57,9.58,9.58,0,0,1-6.2-4,12.66,12.66,0,0,1-2.4,1.35v1.93l2.84-.8c0,.17,0,.42,0,.54a20.63,20.63,0,0,0-3.63,1.21A2.11,2.11,0,0,0,127.5,247.55Zm8.18-10v3.16h-4.25v.71h5.64V242h-4.52a29.46,29.46,0,0,1,4.59,1.78l-.34.45a30.54,30.54,0,0,0-5.37-2v.92h-.69V242a17.07,17.07,0,0,1-5.49,2.11,3.13,3.13,0,0,0-.43-.53,17.05,17.05,0,0,0,5-1.63h-4.65v-.56h5.53v-.71h-4.21v-3.16ZM131,235.16a7.46,7.46,0,0,1,.69,1.11h5.52v.58H125v-.58H131a6.39,6.39,0,0,0-.52-.93Zm-3.82,3.7h3.56V238h-3.56Zm0,1.35h3.56v-.85h-3.56Zm4.25-1.35H135V238h-3.57Zm0,1.35H135v-.85h-3.57Z" transform="translate(-91.98 -183.4)"/><path class="cls-3" d="M291.54,255v4.59h-.69v-4h-9.18v4.06H281V255Zm-1,5.38v6.75h-.68v-.65h-7.16v.69h-.66V260.4Zm-.63-3.67v.57h-7.25v-.57Zm0,1.82v.56h-7.19v-.56Zm0,3.68V261h-7.16v1.25Zm-7.16,1.83h7.16V262.8h-7.16Zm0,1.84h7.16v-1.29h-7.16Z" transform="translate(-91.98 -183.4)"/><path class="cls-3" d="M306.54,260v.64h-8.36c-.19.63-.43,1.31-.64,1.89h7.27a2.26,2.26,0,0,1,0,.35c-.38,2.5-.75,3.55-1.26,4a1.58,1.58,0,0,1-1.05.3c-.44,0-1.39,0-2.37-.07a1.65,1.65,0,0,0-.24-.67c1,.11,2.06.13,2.42.13s.53,0,.68-.14c.43-.32.73-1.24,1.05-3.26l-7.08,0h-.42c.3-.66.66-1.66.94-2.51h-3.08V260ZM304.83,255v3.55h-8.71V255Zm-8,2.92h7.32v-2.28H296.8Z" transform="translate(-91.98 -183.4)"/><path class="cls-1" d="M313,254.89a13.9,13.9,0,0,1-4.12,5.68,6.06,6.06,0,0,0-.6-.49,12.18,12.18,0,0,0,4-5.39Zm6,4.92s0,.27,0,.37c-.24,4.4-.44,6-1,6.52a1.13,1.13,0,0,1-1,.39,19.92,19.92,0,0,1-2.29-.07,1.57,1.57,0,0,0-.25-.68c1,.09,2,.1,2.3.1a.92.92,0,0,0,.63-.15c.39-.4.63-1.89.82-5.82h-4.38c-.4,2.87-1.33,5.53-4.91,6.79a2.87,2.87,0,0,0-.42-.53c3.44-1.15,4.26-3.66,4.6-6.26h-3v-.66Zm2.1.07a3,3,0,0,0-.55.57,17.3,17.3,0,0,1-4.18-5.53l.62-.26A14.63,14.63,0,0,0,321.08,259.88Z" transform="translate(-91.98 -183.4)"/><path class="cls-1" d="M326.07,254.93l.11,0,.46.28c-.44,1.15-1,2.53-1.51,3.67a4.5,4.5,0,0,1,1.39,3.18,1.87,1.87,0,0,1-.51,1.53,1.35,1.35,0,0,1-.69.23,4.41,4.41,0,0,1-1,0,1.45,1.45,0,0,0-.22-.62,5.09,5.09,0,0,0,.95,0,.93.93,0,0,0,.48-.14c.25-.17.32-.62.32-1.06a4.33,4.33,0,0,0-1.45-3.06c.5-1.13,1-2.39,1.35-3.35h-2.21v11.62h-.64V254.93Zm9.12.11v.63h-7.87V255Zm-.23,5.32v6.05c0,.39-.07.59-.36.7a5.47,5.47,0,0,1-1.51.1,3.61,3.61,0,0,0-.21-.6,11.91,11.91,0,0,0,1.24,0c.17,0,.21,0,.21-.18V261h-6.28v6.26h-.62v-6.86Zm-.63-3.73v2.77h-6.22v-2.77Zm-5.59,2.2h5V257.2h-5Zm4.64,2.65a20.54,20.54,0,0,1-1.19,1.87h1.49v.55h-2.21v3h-.61v-3h-2.08v-.55h2.82a17.69,17.69,0,0,0,1.25-2.11Zm-3.84-.28a9.33,9.33,0,0,1,1.25,1.83l-.51.26a11.61,11.61,0,0,0-1.22-1.88Z" transform="translate(-91.98 -183.4)"/><path class="cls-1" d="M291.64,269.16v2.74H282v1.39c0,2.36-.19,5.69-1.65,8a2.58,2.58,0,0,0-.59-.33c1.43-2.27,1.56-5.39,1.56-7.67v-4.13ZM282,271.3h9v-1.54h-9Zm7.11,7a19.63,19.63,0,0,1,1.59,2l-.47.24c-.14-.21-.32-.48-.55-.78-2.06.11-4.11.21-5.56.27l0-.6,2.84-.08V278h-3.56v3.4h-.65v-3.95h4.21v-1h-3.63v-2.27h3.63v-.93c-1.28.07-2.6.12-3.8.12a1.68,1.68,0,0,0-.17-.49,59,59,0,0,0,7.57-.54l.46.48c-.92.16-2.12.28-3.43.38v1h3.73v2.27h-3.73v1h4.34v3.17c0,.37-.07.54-.38.64a7.78,7.78,0,0,1-1.84.1,3.41,3.41,0,0,0-.22-.54c.78,0,1.36,0,1.56,0s.23-.06.23-.22V278h-3.69v1.29l1.73-.07-.61-.72ZM283.92,276h3v-1.2h-3Zm3.61,0h3.08v-1.2h-3.08Z" transform="translate(-91.98 -183.4)"/><path class="cls-1" d="M295.21,271.29a14.38,14.38,0,0,1-.75,3.71l-.58-.2a13.61,13.61,0,0,0,.77-3.61Zm1.49-2.78v12.86H296V268.51Zm.87,2.25a13.23,13.23,0,0,1,1.08,2.43l-.56.29a12.82,12.82,0,0,0-1-2.49Zm4.73,9.44v-4h-3.16v-.65h3.16v-3.31h-2.37a12.07,12.07,0,0,1-1.1,2.36c-.13-.08-.44-.24-.62-.32a14.49,14.49,0,0,0,1.87-5.14l.68.12c-.17.79-.37,1.57-.6,2.31h2.14v-3.05H303v3.05h3.42v.67H303v3.31h3.11v.65H303v4h3.7v.66h-8.63v-.66Z" transform="translate(-91.98 -183.4)"/><path class="cls-1" d="M314.46,269.19a15.15,15.15,0,0,1-2.53.69v2.81h2.72v.65h-2.72v.43c.48.51,2.14,2.48,2.5,3l-.45.56c-.37-.55-1.39-1.9-2.05-2.7v6.79h-.68v-6.92a17.11,17.11,0,0,1-2.87,4.69,5.6,5.6,0,0,0-.42-.62,15.19,15.19,0,0,0,3.13-5.18h-2.76v-.65h2.92V270c-.86.16-1.73.27-2.53.37a2.83,2.83,0,0,0-.21-.55,28.35,28.35,0,0,0,5.47-1.16Zm5.79.64V280.7h-.68v-1.09h-3.7v1.19h-.67v-11Zm-.68,9.11v-8.45h-3.7v8.45Z" transform="translate(-91.98 -183.4)"/><path class="cls-1" d="M326.34,268.71a23.8,23.8,0,0,1-1.53,3.31v9.39h-.65V273.1a15.52,15.52,0,0,1-1.45,1.9,4.59,4.59,0,0,0-.44-.64,16.72,16.72,0,0,0,3.43-5.84Zm4.73-.13-.29,1.49h4v.62h-4.1c-.13.57-.26,1.09-.38,1.53h3.58v8h1.39v.63h-9.48v-.63h1.43v-8h2.44c.11-.42.24-1,.35-1.53h-3.63v-.62h3.75c.1-.55.18-1.11.24-1.56Zm2.14,5.68v-1.44h-5.37v1.44Zm-5.37,2h5.37v-1.46h-5.37Zm0,2h5.37v-1.48h-5.37Zm5.37,1.95v-1.38h-5.37v1.38Z" transform="translate(-91.98 -183.4)"/><path class="cls-1" d="M405,199.17a15.48,15.48,0,0,1-.69,1.42h9.16v.64H404a15.63,15.63,0,0,1-2.29,3c-.15-.1-.44-.32-.62-.42a13.79,13.79,0,0,0,3.29-4.83Zm-1.8,7c.16-1.15.32-2.32.43-3.29h8.42s0,.29,0,.39l-.12,2.9h2v.63h-2c0,1.14-.11,2-.18,2.71h1.79v.62h-1.88a3.36,3.36,0,0,1-.42,1.44,1.15,1.15,0,0,1-.91.41c-.39,0-1.1,0-1.8-.06a1.42,1.42,0,0,0-.17-.58c.77.06,1.48.07,1.75.07s.39,0,.52-.2a2.44,2.44,0,0,0,.34-1.08h-8.41c.19-.86.39-2.06.59-3.32h-2.05v-.63Zm8,.62H403.8c-.16,1-.3,1.94-.44,2.72H411C411.11,208.81,411.18,207.92,411.24,206.76Zm-7-3.26-.35,2.65h7.39l.11-2.65Zm1.65,3.47a12.85,12.85,0,0,1,2.92,1.93l-.4.5a13,13,0,0,0-2.93-2Zm.47-3.22a10.68,10.68,0,0,1,2.75,1.68l-.43.46a11.14,11.14,0,0,0-2.73-1.71Z" transform="translate(-91.98 -183.4)"/><path class="cls-1" d="M420.86,199.19a8.64,8.64,0,0,1-.94,1.27h4.84l.13,0,.45.29a9,9,0,0,1-3,3,18,18,0,0,0,5.86,1.73,2.64,2.64,0,0,0-.42.61,17.51,17.51,0,0,1-6.1-2,20.65,20.65,0,0,1-6.19,2,1.47,1.47,0,0,0-.33-.63,19.39,19.39,0,0,0,5.89-1.78,9.29,9.29,0,0,1-2.23-2,13.07,13.07,0,0,1-2.58,1.8,2.1,2.1,0,0,0-.51-.48,10.7,10.7,0,0,0,4.39-3.9Zm-1.22,9.35a13.92,13.92,0,0,1-3,2.85,4.25,4.25,0,0,0-.47-.48,12.46,12.46,0,0,0,2.92-2.63Zm2.35-3.33v1.72h4.51v.64H422v3.51c0,.4-.08.58-.36.7a5.48,5.48,0,0,1-1.52.11,2.42,2.42,0,0,0-.24-.61h1.23c.16,0,.2,0,.2-.2v-3.51h-4.62v-.64h4.62v-1.72Zm-2.63-4.12-.09.08a8.05,8.05,0,0,0,2.4,2.14,8.68,8.68,0,0,0,2.61-2.22Zm4.66,7.16a18.69,18.69,0,0,1,2.79,2.75l-.53.41a18.15,18.15,0,0,0-2.77-2.81Z" transform="translate(-91.98 -183.4)"/><path class="cls-1" d="M432.2,199.06v2.79h1.6v.66h-1.6v.63c.32.44,1.37,2.16,1.63,2.57l-.45.55c-.2-.47-.77-1.49-1.18-2.21v7.87h-.65v-7.56a16.83,16.83,0,0,1-1.87,4.5,2.15,2.15,0,0,0-.43-.61,17.78,17.78,0,0,0,2.24-5.74h-1.87v-.66h1.93v-2.79Zm9.1.26c-.43.82-1,1.78-1.45,2.52h1.89v.64h-3.37v2.29h2.89v.66h-2.89v2.35h3.68v.67h-3.68V212h-.7v-3.5h-3.9v-.67h3.9v-2.35h-2.85v-.66h2.85v-2.29h-3.29v-.64h4.74a18.39,18.39,0,0,0,1.5-2.79Zm-5.66-.17a10.65,10.65,0,0,1,1.32,2.24l-.62.29a12,12,0,0,0-1.28-2.29Z" transform="translate(-91.98 -183.4)"/><path class="cls-1" d="M451.83,199.13c0,1,0,1.86.07,2.72h4.39v.67h-4.35c.39,5.22,1.63,8.76,3.26,8.76.46,0,.63-.79.71-2.76a2.37,2.37,0,0,0,.63.37c-.15,2.33-.44,3.1-1.38,3.1-2.24,0-3.51-4-3.91-9.47h-7.53v-.67h7.49c-.06-.87-.09-1.78-.1-2.72Zm-4.85,11v-4.54H444.2v-.68h6.34v.68h-2.88V210l3.28-.75.05.62c-2.45.6-5.11,1.24-6.91,1.66l-.26-.66Zm6.42-10.93a14.09,14.09,0,0,1,2.17,1.81l-.48.46a13.33,13.33,0,0,0-2.15-1.86Z" transform="translate(-91.98 -183.4)"/><path class="cls-1" d="M458.76,209.79a1.33,1.33,0,0,0,.74-1.09v-8.46h.71V209l3.64-1.63c0,.17.14.47.18.61-4.12,1.87-4.56,2.11-4.89,2.4A3.38,3.38,0,0,0,458.76,209.79Zm10-10.16c-.22,3.44-.61,6.05-1.58,8.06a25.86,25.86,0,0,1,3.48,3.8l-.61.43a24.1,24.1,0,0,0-3.18-3.63,9,9,0,0,1-4.43,3.76,4.58,4.58,0,0,0-.52-.59c4.74-1.85,5.75-5.37,6.11-11.87Zm-5.67.68a19.37,19.37,0,0,1,2.24,3.36l-.63.35a17.31,17.31,0,0,0-2.19-3.41Z" transform="translate(-91.98 -183.4)"/><path class="cls-3" d="M405.84,213.79a14,14,0,0,1-4.13,5.68,4.8,4.8,0,0,0-.59-.49,12.25,12.25,0,0,0,4-5.39Zm6,4.92a2.79,2.79,0,0,1,0,.36c-.24,4.41-.43,6-.95,6.52a1.13,1.13,0,0,1-1,.4,20,20,0,0,1-2.3-.07,1.69,1.69,0,0,0-.24-.68c1,.09,2,.1,2.3.1a.83.83,0,0,0,.62-.16c.4-.39.64-1.88.82-5.81H406.7c-.4,2.87-1.33,5.53-4.9,6.79a4.06,4.06,0,0,0-.43-.54c3.45-1.14,4.27-3.65,4.61-6.25h-3v-.66Zm2.1.07a3,3,0,0,0-.56.56,17.25,17.25,0,0,1-4.18-5.52l.63-.26A14.42,14.42,0,0,0,413.92,218.78Z" transform="translate(-91.98 -183.4)"/><path class="cls-3" d="M427.72,218.93v.64h-8.36c-.19.62-.43,1.31-.64,1.89H426a2.26,2.26,0,0,1,0,.35c-.38,2.49-.75,3.54-1.26,4a1.64,1.64,0,0,1-1.05.3c-.44,0-1.39,0-2.37-.08a1.66,1.66,0,0,0-.24-.66c1,.11,2.06.13,2.43.13s.52,0,.67-.15c.43-.31.73-1.23,1.05-3.26h-7.49c.29-.67.65-1.66.93-2.51h-3.08v-.64ZM426,213.87v3.55H417.3v-3.55Zm-8,2.92h7.32v-2.28H418Z" transform="translate(-91.98 -183.4)"/><path class="cls-1" d="M429.28,218.24c.24-.06.49-.38.78-.87a21.93,21.93,0,0,0,2-4l.7.3a27.05,27.05,0,0,1-2.38,4.42l2.29-.23c.33-.49.64-1,.92-1.51l.66.37a32.34,32.34,0,0,1-3.51,4.62l3.59-.61c0,.18,0,.45,0,.59-4,.75-4.45.85-4.73,1a6.49,6.49,0,0,0-.24-.7c.28-.05.62-.42,1.08-.93a23.72,23.72,0,0,0,1.74-2.18,13.14,13.14,0,0,0-2.68.41A4.57,4.57,0,0,0,429.28,218.24Zm5,5.21.06.63-4.91,1.12-.14-.7C430.58,224.26,432.45,223.85,434.31,223.45Zm4.32-10.22v2H442v.67h-3.36v2.58h3.18v.68h-7v-.68h3.09V215.9H434.5v-.67h3.44v-2Zm2.78,7.62v5.21h-.68v-.55H435.9v.61h-.67v-5.27Zm-.68,4v-3.39H435.9v3.39Z" transform="translate(-91.98 -183.4)"/><path class="cls-1" d="M449.62,217.33v-1.81H444v-.66h5.6v-1.6h.71v1.6H456v.66h-5.68v1.81H455v3.8h-4.23a13.13,13.13,0,0,0,5.8,3.87,3.48,3.48,0,0,0-.5.58,14.42,14.42,0,0,1-5.72-4v4.52h-.71v-4.47a15.09,15.09,0,0,1-5.57,3.92,4.39,4.39,0,0,0-.48-.57,13.82,13.82,0,0,0,5.67-3.87H445v-3.8Zm-3.91,3.15h3.91V218h-3.91Zm4.62,0h3.95V218h-3.95Z" transform="translate(-91.98 -183.4)"/><line class="cls-2" x1="74.55" y1="51.17" x2="84.66" y2="51.17"/><polygon class="cls-3" points="83.83 53.99 88.72 51.16 83.83 48.34 83.83 53.99"/><line class="cls-2" x1="144.71" y1="70.3" x2="170.18" y2="44.83"/><polygon class="cls-3" points="171.59 47.41 173.06 41.95 167.59 43.42 171.59 47.41"/><line class="cls-2" x1="215.57" y1="70.3" x2="241.32" y2="39.41"/><polygon class="cls-3" points="242.96 41.85 243.92 36.28 238.62 38.23 242.96 41.85"/><line class="cls-2" x1="300.61" y1="70.3" x2="275.14" y2="44.83"/><polygon class="cls-3" points="277.73 43.42 272.27 41.95 273.73 47.41 277.73 43.42"/><line class="cls-2" x1="308.41" y1="29.2" x2="298.3" y2="29.2"/><polygon class="cls-3" points="299.13 26.37 294.24 29.2 299.13 32.02 299.13 26.37"/><path class="cls-4" d="M321.73,219.69c0,1.56-.21,2.83-.47,2.83H265.51c-.26,0-.47,1.27-.47,2.83,0-1.56-.21-2.83-.47-2.83H208.82c-.26,0-.47-1.27-.47-2.83" transform="translate(-91.98 -183.4)"/><path class="cls-4" d="M375.59,219.69a22.3,22.3,0,0,1-.09,2.83H364.35a19.31,19.31,0,0,0-.1,2.83,22.3,22.3,0,0,0-.09-2.83H353a21.14,21.14,0,0,1-.1-2.83" transform="translate(-91.98 -183.4)"/><rect class="cls-5" x="0.14" y="0.14" width="382.68" height="99.21" rx="5.67" ry="5.67"/><path class="cls-1" d="M492.36,230.24a13.14,13.14,0,0,1,1.19.7,7.79,7.79,0,0,0,3.62.55c1.73,0,3.91-.07,5.37-.23a2.51,2.51,0,0,0-.22.8c-1.18.07-3.73.14-5.16.14a7.81,7.81,0,0,1-3.8-.64c-.56-.31-1-.69-1.29-.69-.5,0-1.21.65-2,1.46l-.51-.64a5.68,5.68,0,0,1,2.1-1.45v-4.59h-2V225h2.63Zm-1.84-10a10.26,10.26,0,0,1,2.09,2.17l-.56.39a11.72,11.72,0,0,0-2.05-2.22Zm3.62,3.39c1.17.8,2.48,1.75,3.71,2.7a10.74,10.74,0,0,0,1.94-3.75h-6.6V222h9.17v.67h-1.83a12.26,12.26,0,0,1-2.15,4.17c1.31,1,2.53,2.05,3.35,2.84l-.55.53a36.31,36.31,0,0,0-3.24-2.86,12.2,12.2,0,0,1-4.43,2.9,3.94,3.94,0,0,0-.44-.62,10.9,10.9,0,0,0,4.34-2.71c-1.25-1-2.57-2-3.77-2.78Zm3.07-4.11a12.48,12.48,0,0,1,1.14,2l-.68.26a10.34,10.34,0,0,0-1.11-2.07Z" transform="translate(-91.98 -183.4)"/><path class="cls-1" d="M511,219.9l-.37.56a17,17,0,0,0,6.15,5,1.85,1.85,0,0,0-.49.58,18.17,18.17,0,0,1-6-5,17.46,17.46,0,0,1-6,5,2.48,2.48,0,0,0-.5-.58,16.09,16.09,0,0,0,6.64-5.84Zm-.41,3.65v8.95h-.7v-8.95Z" transform="translate(-91.98 -183.4)"/><path class="cls-1" d="M521.12,222.09v-.86h-3v-.58h3v-1h.64v1h2.83v.58h-2.83v.86h2.38v2.33h-2.38v2.63h-.64V225a8.56,8.56,0,0,1-2.75,2.07,2.36,2.36,0,0,0-.42-.47,7.67,7.67,0,0,0,3-2.18h-2.3v-2.33Zm0,6.89v2.51h2.9v-3.37h-5v-.63h10.84v.63h-5.14v1.34h4.33v.59h-4.33v1.44h6.09v.61H518v-.61h2.48V229Zm-1.91-5.1h1.87v-1.25h-1.87Zm2.51,0h1.76v-1.25h-1.76Zm.33.74a8.89,8.89,0,0,1,2.08,1.26l-.33.45a11,11,0,0,0-2.08-1.33Zm5.06-4.87a10.09,10.09,0,0,1-.56,1.54h4.2v.62h-.89a7.56,7.56,0,0,1-1.69,3.06,6.9,6.9,0,0,0,2.65,1.66,2.32,2.32,0,0,0-.41.55,8,8,0,0,1-2.68-1.78,9.45,9.45,0,0,1-2.93,1.74,3.49,3.49,0,0,0-.43-.52,8.11,8.11,0,0,0,3-1.68,8.86,8.86,0,0,1-1.45-2.35,7.18,7.18,0,0,1-1,1.23,5.83,5.83,0,0,0-.51-.45,8.08,8.08,0,0,0,2.07-3.76Zm-.88,2.22a8.48,8.48,0,0,0,1.5,2.56,6.89,6.89,0,0,0,1.45-2.62H526.3Z" transform="translate(-91.98 -183.4)"/><path class="cls-1" d="M535.93,219.85a21.6,21.6,0,0,1-1.34,3.15v9.47h-.66v-8.31a15.85,15.85,0,0,1-1.41,2,4.53,4.53,0,0,0-.46-.63,17,17,0,0,0,3.23-5.85Zm3.92,9.22v-5.56a16,16,0,0,1-4.19,6.59,2,2,0,0,0-.49-.51,14.75,14.75,0,0,0,4.14-6.24h-3.7v-.68h4.24v-3h.66v3H545v.68h-3.85a13.44,13.44,0,0,0,4.07,6.17,3.07,3.07,0,0,0-.54.54,15.25,15.25,0,0,1-4.13-6.61v5.62H543v.65h-2.53v2.71h-.66v-2.71h-2.61v-.65Z" transform="translate(-91.98 -183.4)"/><path class="cls-1" d="M550.15,219.85a22,22,0,0,1-1.39,3.22v9.4h-.65v-8.25a16.51,16.51,0,0,1-1.39,1.93,4.53,4.53,0,0,0-.46-.63,17.25,17.25,0,0,0,3.25-5.85Zm4.19,2.68v-1.4h-4.09v-.64H559v.64h-4v1.4h3.43v5.19h-3.52a4.87,4.87,0,0,1-1.22,2.78,16.08,16.08,0,0,0,5.57,1.29,3.08,3.08,0,0,0-.42.64,16.18,16.18,0,0,1-5.64-1.46,9,9,0,0,1-3.39,1.58,3.17,3.17,0,0,0-.4-.56,8.81,8.81,0,0,0,3.19-1.36,6.46,6.46,0,0,1-2.24-2.23l.61-.21a5.65,5.65,0,0,0,2.13,2,4.14,4.14,0,0,0,1.14-2.47h-3.54v-5.19Zm-3,2.3h3v-1.72h-3Zm0,2.31h2.94l0-.91v-.83h-3Zm3.65-.91,0,.91h2.79V225.4H555Zm0-1.4h2.76v-1.72H555Z" transform="translate(-91.98 -183.4)"/><path class="cls-1" d="M493.13,241.44a11.13,11.13,0,0,1-.37,1.46,4,4,0,0,0,3.06,2.57v-4.68h-6v-.63h12.52v.63H496.5v1.88h4.89v.64H496.5v2.28a13.36,13.36,0,0,0,2,.12c.4,0,3.51,0,4.07,0a2.14,2.14,0,0,0-.27.67h-3.8c-3,0-4.89-.48-6-2.65a7,7,0,0,1-2.34,3,4.15,4.15,0,0,0-.52-.48,7.06,7.06,0,0,0,2.86-4.86Zm7.53-7V239H491.4v-4.53Zm-8.59,2H500V235h-7.89Zm0,2H500V237h-7.89Z" transform="translate(-91.98 -183.4)"/><path class="cls-1" d="M516.72,239.71v.75H503.83v-.75Z" transform="translate(-91.98 -183.4)"/><path class="cls-1" d="M523.62,233.91a9.49,9.49,0,0,1-.94,1.28h4.83l.13,0,.46.28a9,9,0,0,1-3,3,17.61,17.61,0,0,0,5.87,1.73,2.87,2.87,0,0,0-.42.61,17.5,17.5,0,0,1-6.1-1.95,20.35,20.35,0,0,1-6.19,2,1.62,1.62,0,0,0-.33-.62,19.54,19.54,0,0,0,5.88-1.79,9.24,9.24,0,0,1-2.22-2,13,13,0,0,1-2.58,1.8,2.57,2.57,0,0,0-.51-.48,10.7,10.7,0,0,0,4.39-3.9Zm-1.22,9.36a14.42,14.42,0,0,1-3,2.85,3.55,3.55,0,0,0-.47-.48,13,13,0,0,0,2.92-2.64Zm2.35-3.33v1.71h4.51v.64h-4.51v3.52c0,.39-.08.58-.37.69a5.39,5.39,0,0,1-1.51.11,3.51,3.51,0,0,0-.24-.61,11.79,11.79,0,0,0,1.23,0c.15,0,.2,0,.2-.19v-3.52h-4.62v-.64h4.62v-1.71Zm-2.64-4.13-.08.09a8.42,8.42,0,0,0,2.39,2.14,8.46,8.46,0,0,0,2.61-2.23Zm4.67,7.16a19.7,19.7,0,0,1,2.79,2.75l-.54.41a17.17,17.17,0,0,0-2.76-2.8Z" transform="translate(-91.98 -183.4)"/><path class="cls-1" d="M535.31,233.94v2.31h2.07v.67h-2.07v1.67l0,.94h2.26v.66h-2.28c0,.36-.06.71-.1,1.08.55.6,2,2.37,2.37,2.81l-.5.54c-.36-.56-1.35-1.83-2-2.61a7.49,7.49,0,0,1-2.46,4.52,2.48,2.48,0,0,0-.48-.5c1.91-1.5,2.38-3.82,2.49-5.84h-2.44v-.66h2.46v-2.61h-2.14v-.67h2.14v-2.31Zm6.19,2.61v3a7.28,7.28,0,0,1-4.25,7.1,1.85,1.85,0,0,0-.42-.51,6.66,6.66,0,0,0,4-6.61v-3Zm2.49-2v7.53h-.67v-6.9H539v6.9h-.67v-7.53Zm-2,7.1v3.7c0,.39.13.49.51.49h1.21c.51,0,.6-.37.65-2.47a1.61,1.61,0,0,0,.6.28c-.09,2.24-.22,2.77-1.24,2.77h-1.26c-.79,0-1.1-.23-1.1-1v-3.76Z" transform="translate(-91.98 -183.4)"/><path class="cls-1" d="M550.57,236.32v4a6.49,6.49,0,0,1-3.65,6.39,1.78,1.78,0,0,0-.44-.51,5.9,5.9,0,0,0,3.44-5.9v-4Zm2.63-1.71v8.5h-.67v-7.86H548v7.88h-.66v-8.52Zm-2.38,8.89a18.54,18.54,0,0,1,2.5,2.26l-.45.53a20.61,20.61,0,0,0-2.49-2.37Zm4.91-8.44v8.35h-.65v-8.35Zm2.65-1.2v11.68c0,.58-.18.8-.55.93a10.58,10.58,0,0,1-2.41.13,2.88,2.88,0,0,0-.27-.69c1.05,0,1.93,0,2.19,0s.38-.1.38-.37V233.86Z" transform="translate(-91.98 -183.4)"/><line class="cls-2" x1="396.99" y1="49.75" x2="386.89" y2="49.75"/><polygon class="cls-3" points="387.71 46.92 382.82 49.75 387.71 52.58 387.71 46.92"/></svg>