<svg xmlns="http://www.w3.org/2000/svg" viewBox="0 0 14 12"><title>资源 1</title><g id="图层_2" data-name="图层 2"><g id="svg3025"><g id="g3027"><path id="path3029" d="M11,7.25v2.5A2.25,2.25,0,0,1,8.75,12H2.25a2.17,2.17,0,0,1-1.59-.66A2.17,2.17,0,0,1,0,9.75V3.25A2.17,2.17,0,0,1,.66,1.66,2.17,2.17,0,0,1,2.25,1h5.5A.24.24,0,0,1,8,1.25v.5A.24.24,0,0,1,7.75,2H2.25a1.2,1.2,0,0,0-.88.37A1.2,1.2,0,0,0,1,3.25v6.5a1.2,1.2,0,0,0,.37.88,1.2,1.2,0,0,0,.88.37h6.5A1.25,1.25,0,0,0,10,9.75V7.25A.24.24,0,0,1,10.25,7h.5a.24.24,0,0,1,.25.25ZM14,.5v4a.5.5,0,0,1-.85.35L11.77,3.48,6.68,8.57a.25.25,0,0,1-.36,0l-.89-.89a.25.25,0,0,1,0-.36l5.09-5.09L9.15.85A.48.48,0,0,1,9,.5.48.48,0,0,1,9.15.15.48.48,0,0,1,9.5,0h4a.48.48,0,0,1,.35.15A.48.48,0,0,1,14,.5Z"/></g></g></g></svg>