<svg id="Capa_1" data-name="Capa 1" xmlns="http://www.w3.org/2000/svg" viewBox="0 0 800 765.07"><defs><style>.cls-1{fill:#ed8a19;}</style></defs><title>star</title><path class="cls-1" d="M438.63,41.49l90.23,182.83a43.07,43.07,0,0,0,32.44,23.56L763.07,277.2c35.34,5.14,49.45,48.56,23.88,73.48L641,493a43.08,43.08,0,0,0-12.38,38.13l34.46,201c6,35.19-30.91,62-62.51,45.42L420.06,682.62a43.13,43.13,0,0,0-40.1,0L199.5,777.49c-31.61,16.62-68.55-10.23-62.51-45.42l34.46-201A43.08,43.08,0,0,0,159.07,493l-146-142.31C-12.5,325.74,1.6,282.32,36.95,277.2l201.77-29.32a43.07,43.07,0,0,0,32.44-23.56L361.39,41.49C377.17,9.46,422.83,9.46,438.63,41.49Z" transform="translate(-0.01 -17.47)"/></svg>