<svg xmlns="http://www.w3.org/2000/svg" viewBox="0 0 12 11.43"><defs><style>.cls-1{fill:gray;}.cls-2{fill:#f9c543;}.cls-3{fill:#fdb53f;}.cls-4{fill:#fc9a42;}</style></defs><title>资源 1</title><g id="图层_2" data-name="图层 2"><g id="图层_1-2" data-name="图层 1"><g id="star_gold_orange" data-name="star gold orange"><rect id="Rectangle_18" data-name="Rectangle 18" class="cls-1" x="6.01" y="6.31" transform="translate(-2.31 3.71) rotate(-29.06)"/><rect id="Rectangle_19" data-name="Rectangle 19" class="cls-1" x="6.01" y="6.31"/><path id="Path_72" data-name="Path 72" class="cls-1" d="M6,6.31"/><path id="Path_73" data-name="Path 73" class="cls-2" d="M6,6.31H6l6-2L8,3.59,6,6.31Z"/><rect id="Rectangle_20" data-name="Rectangle 20" class="cls-1" x="6.01" y="6.31"/><path id="Path_74" data-name="Path 74" class="cls-1" d="M6,6.31"/><path id="Path_75" data-name="Path 75" class="cls-3" d="M9.2,7.33l2.8-3-6,2Z"/><path id="Path_76" data-name="Path 76" class="cls-1" d="M6,6.31"/><path id="Path_77" data-name="Path 77" class="cls-2" d="M2.82,7.36l-.5,4.07L6,6.31Z"/><path id="Path_78" data-name="Path 78" class="cls-4" d="M6,6.31,2.32,11.43,6,9.66V6.31Z"/><path id="Path_79" data-name="Path 79" class="cls-4" d="M8,3.59,6,0,6,6.31Z"/><path id="Path_80" data-name="Path 80" class="cls-4" d="M6,6.31H6L9.73,11.4,9.2,7.33Z"/><path id="Path_81" data-name="Path 81" class="cls-3" d="M6,6.31V9.66L9.73,11.4,6,6.31Z"/><path id="Path_82" data-name="Path 82" class="cls-2" d="M6,6.31H6L6,0,4,3.6,6,6.31Z"/><path id="Path_83" data-name="Path 83" class="cls-3" d="M4,3.6,0,4.38,6,6.31Z"/><path id="Path_84" data-name="Path 84" class="cls-4" d="M6,6.31H6L0,4.38l2.82,3L6,6.31Z"/></g></g></g></svg>