<svg id="_0" data-name="0" xmlns="http://www.w3.org/2000/svg" viewBox="0 0 188.98 226.77"><defs><style>.cls-1{fill:red;}</style></defs><title>zhi-logo</title><g id="CIRCLE"><path class="cls-1" d="M182.68,12.57A12.6,12.6,0,1,1,195.24,25.2a12.59,12.59,0,0,1-12.56-12.63Z" transform="translate(-18.9 0)"/></g><g id="LWPOLYLINE"><path d="M182.68,226.77h25.19V63a12.6,12.6,0,1,0-25.19,0Z" transform="translate(-18.9 0)"/></g><g id="LWPOLYLINE-2" data-name="LWPOLYLINE"><path class="cls-1" d="M182.68,119.69H113.39a6.31,6.31,0,0,1-6.3-6.3v-63H94.49V195.28a6.3,6.3,0,0,0,12.6,0v-56.7a6.3,6.3,0,0,1,6.3-6.3h69.29Z" transform="translate(-18.9 0)"/></g><g id="LWPOLYLINE-3" data-name="LWPOLYLINE"><polygon points="75.59 167.98 50.39 201.57 151.18 201.57 151.18 226.77 0 226.77 75.59 125.98 75.59 167.98"/></g><g id="LWPOLYLINE-4" data-name="LWPOLYLINE"><path d="M121.26,132.28l-14.17,18.9v-12.6a6.3,6.3,0,0,1,6.3-6.3Z" transform="translate(-18.9 0)"/></g><g id="LWPOLYLINE-5" data-name="LWPOLYLINE"><path d="M107.09,109.19l63-84H18.9V0h164a17.64,17.64,0,0,0,15,30l-67.24,89.66H113.39a6.31,6.31,0,0,1-6.3-6.3Z" transform="translate(-18.9 0)"/></g></svg>